<svg width="51" height="41" viewBox="0 0 51 41" fill="none" xmlns="http://www.w3.org/2000/svg">
<g filter="url(#filter0_d_1272_1815)">
<rect x="3.87041" y="0.566459" width="43.4639" height="33.9463" rx="4.6002" fill="#000080" stroke="#F39322" stroke-width="0.951765"/>
<path d="M34.4119 13.8771H28.1373C27.5554 13.8771 26.9893 13.6884 26.5238 13.3393L24.3725 11.7258C23.907 11.3767 23.3409 11.188 22.759 11.188H16.4844" stroke="white" stroke-width="0.951765" stroke-linecap="round" stroke-linejoin="round"/>
<path d="M17.3828 11.188V12.9807C17.3828 16.3612 17.3828 18.0515 18.433 19.1016C19.4832 20.1518 21.1734 20.1518 24.5538 20.1518H27.243C29.7608 20.1518 31.0197 20.1518 31.9241 19.5475C32.3155 19.2859 32.6517 18.9497 32.9133 18.5583C33.5176 17.6539 33.5176 16.3949 33.5176 13.8771" stroke="white" stroke-width="0.951765" stroke-linecap="round" stroke-linejoin="round"/>
<path d="M30.8268 20.1514V21.9441M20.0703 20.1514V21.9441" stroke="white" stroke-width="0.951765" stroke-linecap="round" stroke-linejoin="round"/>
<path d="M19.1758 11.1878V7.15413C19.1758 6.41155 19.7778 5.80957 20.5203 5.80957C21.2629 5.80957 21.8649 6.41155 21.8649 7.15413V7.60232" stroke="white" stroke-width="0.951765" stroke-linecap="round" stroke-linejoin="round"/>
<path d="M8.03242 26.4672H5.90681V27.7299C5.99564 27.6114 6.12678 27.512 6.30021 27.4316C6.47787 27.3513 6.66611 27.3111 6.86492 27.3111C7.22025 27.3111 7.50789 27.3872 7.72786 27.5395C7.95205 27.6918 8.11068 27.8843 8.20374 28.1169C8.30103 28.3496 8.34968 28.5949 8.34968 28.8529C8.34968 29.166 8.28834 29.4452 8.16567 29.6905C8.04723 29.9316 7.86745 30.122 7.62633 30.2616C7.38945 30.4012 7.09758 30.4709 6.75071 30.4709C6.28963 30.4709 5.9195 30.3567 5.64032 30.1283C5.36113 29.8999 5.19405 29.5974 5.13905 29.221H5.84336C5.88989 29.4198 5.99353 29.5784 6.15427 29.6968C6.31501 29.8111 6.51594 29.8682 6.75706 29.8682C7.05739 29.8682 7.28158 29.7772 7.42964 29.5953C7.58192 29.4134 7.65806 29.1723 7.65806 28.872C7.65806 28.5674 7.58192 28.3348 7.42964 28.174C7.27735 28.009 7.05316 27.9266 6.75706 27.9266C6.54978 27.9266 6.37423 27.9794 6.23041 28.0852C6.09082 28.1867 5.9893 28.3263 5.92585 28.504H5.24058V25.8327H8.03242V26.4672ZM13.2065 28.2057C13.4433 28.248 13.6443 28.3728 13.8092 28.5801C13.9742 28.7874 14.0567 29.0221 14.0567 29.2844C14.0567 29.5086 13.9975 29.7117 13.879 29.8935C13.7648 30.0712 13.5977 30.2129 13.3778 30.3187C13.1578 30.4202 12.9019 30.4709 12.61 30.4709H10.8461V26.0611H12.5275C12.8279 26.0611 13.0859 26.1119 13.3016 26.2134C13.5174 26.3149 13.6802 26.4524 13.7902 26.6258C13.9002 26.795 13.9552 26.9854 13.9552 27.1969C13.9552 27.4507 13.8875 27.6622 13.7521 27.8314C13.6168 28.0006 13.4349 28.1254 13.2065 28.2057ZM11.5694 27.9139H12.4641C12.701 27.9139 12.885 27.861 13.0161 27.7552C13.1515 27.6453 13.2191 27.4888 13.2191 27.2857C13.2191 27.0869 13.1515 26.9325 13.0161 26.8225C12.885 26.7083 12.701 26.6512 12.4641 26.6512H11.5694V27.9139ZM12.5466 29.8809C12.7919 29.8809 12.9844 29.8216 13.124 29.7032C13.2636 29.5847 13.3334 29.4198 13.3334 29.2083C13.3334 28.9925 13.2593 28.8212 13.1113 28.6943C12.9632 28.5674 12.7665 28.504 12.5212 28.504H11.5694V29.8809H12.5466ZM14.6016 28.707C14.6016 28.3559 14.6735 28.045 14.8174 27.7743C14.9654 27.5036 15.1642 27.2942 15.4138 27.1461C15.6676 26.9938 15.9468 26.9177 16.2514 26.9177C16.5263 26.9177 16.7653 26.9727 16.9684 27.0827C17.1756 27.1884 17.3406 27.3217 17.4633 27.4824V26.9748H18.193V30.4709H17.4633V29.9506C17.3406 30.1156 17.1735 30.2531 16.962 30.3631C16.7505 30.4731 16.5094 30.5281 16.2387 30.5281C15.9383 30.5281 15.6634 30.4519 15.4138 30.2996C15.1642 30.1431 14.9654 29.9274 14.8174 29.6524C14.6735 29.3732 14.6016 29.0581 14.6016 28.707ZM17.4633 28.7197C17.4633 28.4786 17.4125 28.2692 17.311 28.0915C17.2137 27.9139 17.0847 27.7785 16.9239 27.6854C16.7632 27.5924 16.5898 27.5459 16.4036 27.5459C16.2175 27.5459 16.0441 27.5924 15.8833 27.6854C15.7226 27.7743 15.5915 27.9075 15.4899 28.0852C15.3927 28.2586 15.344 28.4659 15.344 28.707C15.344 28.9481 15.3927 29.1596 15.4899 29.3415C15.5915 29.5234 15.7226 29.663 15.8833 29.7603C16.0483 29.8534 16.2217 29.8999 16.4036 29.8999C16.5898 29.8999 16.7632 29.8534 16.9239 29.7603C17.0847 29.6672 17.2137 29.5319 17.311 29.3542C17.4125 29.1723 17.4633 28.9608 17.4633 28.7197ZM19.9869 27.5649V29.5001C19.9869 29.6313 20.0165 29.7265 20.0758 29.7857C20.1392 29.8407 20.245 29.8682 20.393 29.8682H20.8372V30.4709H20.2661C19.9404 30.4709 19.6908 30.3948 19.5174 30.2425C19.344 30.0902 19.2572 29.8428 19.2572 29.5001V27.5649H18.8448V26.9748H19.2572V26.1055H19.9869V26.9748H20.8372V27.5649H19.9869ZM23.3122 26.9177C23.5787 26.9177 23.8156 26.9748 24.0229 27.089C24.2344 27.2032 24.3993 27.3724 24.5178 27.5966C24.6405 27.8208 24.7018 28.0915 24.7018 28.4088V30.4709H23.9848V28.5167C23.9848 28.2036 23.9065 27.9646 23.75 27.7997C23.5935 27.6305 23.3799 27.5459 23.1092 27.5459C22.8384 27.5459 22.6227 27.6305 22.462 27.7997C22.3055 27.9646 22.2272 28.2036 22.2272 28.5167V30.4709H21.5039V25.7756H22.2272V27.3809C22.3499 27.2328 22.5043 27.1186 22.6904 27.0382C22.8807 26.9579 23.088 26.9177 23.3122 26.9177ZM26.3478 27.4824C26.4535 27.3047 26.5931 27.1673 26.7666 27.07C26.9442 26.9685 27.1536 26.9177 27.3947 26.9177V27.6664H27.2107C26.9273 27.6664 26.7116 27.7383 26.5635 27.8821C26.4197 28.026 26.3478 28.2755 26.3478 28.6309V30.4709H25.6245V26.9748H26.3478V27.4824ZM29.5761 30.5281C29.2462 30.5281 28.9479 30.454 28.6815 30.306C28.415 30.1537 28.2056 29.9422 28.0533 29.6715C27.901 29.3965 27.8249 29.0793 27.8249 28.7197C27.8249 28.3644 27.9031 28.0492 28.0596 27.7743C28.2161 27.4993 28.4298 27.2878 28.7005 27.1398C28.9712 26.9917 29.2737 26.9177 29.6078 26.9177C29.942 26.9177 30.2445 26.9917 30.5152 27.1398C30.7859 27.2878 30.9995 27.4993 31.156 27.7743C31.3126 28.0492 31.3908 28.3644 31.3908 28.7197C31.3908 29.075 31.3104 29.3902 31.1497 29.6651C30.989 29.9401 30.769 30.1537 30.4898 30.306C30.2149 30.454 29.9103 30.5281 29.5761 30.5281ZM29.5761 29.8999C29.7622 29.8999 29.9357 29.8555 30.0964 29.7666C30.2614 29.6778 30.3946 29.5446 30.4962 29.3669C30.5977 29.1892 30.6484 28.9735 30.6484 28.7197C30.6484 28.4659 30.5998 28.2523 30.5025 28.0788C30.4052 27.9012 30.2762 27.7679 30.1154 27.6791C29.9547 27.5903 29.7813 27.5459 29.5951 27.5459C29.409 27.5459 29.2356 27.5903 29.0749 27.6791C28.9183 27.7679 28.7936 27.9012 28.7005 28.0788C28.6074 28.2523 28.5609 28.4659 28.5609 28.7197C28.5609 29.0962 28.6561 29.3881 28.8464 29.5953C29.041 29.7984 29.2842 29.8999 29.5761 29.8999ZM33.6224 30.5281C33.2924 30.5281 32.9942 30.454 32.7277 30.306C32.4612 30.1537 32.2518 29.9422 32.0995 29.6715C31.9472 29.3965 31.8711 29.0793 31.8711 28.7197C31.8711 28.3644 31.9494 28.0492 32.1059 27.7743C32.2624 27.4993 32.476 27.2878 32.7467 27.1398C33.0175 26.9917 33.3199 26.9177 33.6541 26.9177C33.9883 26.9177 34.2907 26.9917 34.5614 27.1398C34.8322 27.2878 35.0458 27.4993 35.2023 27.7743C35.3588 28.0492 35.4371 28.3644 35.4371 28.7197C35.4371 29.075 35.3567 29.3902 35.1959 29.6651C35.0352 29.9401 34.8152 30.1537 34.536 30.306C34.2611 30.454 33.9565 30.5281 33.6224 30.5281ZM33.6224 29.8999C33.8085 29.8999 33.9819 29.8555 34.1427 29.7666C34.3076 29.6778 34.4409 29.5446 34.5424 29.3669C34.6439 29.1892 34.6947 28.9735 34.6947 28.7197C34.6947 28.4659 34.646 28.2523 34.5487 28.0788C34.4514 27.9012 34.3224 27.7679 34.1617 27.6791C34.0009 27.5903 33.8275 27.5459 33.6414 27.5459C33.4553 27.5459 33.2818 27.5903 33.1211 27.6791C32.9646 27.7679 32.8398 27.9012 32.7467 28.0788C32.6537 28.2523 32.6071 28.4659 32.6071 28.7197C32.6071 29.0962 32.7023 29.3881 32.8927 29.5953C33.0872 29.7984 33.3305 29.8999 33.6224 29.8999ZM40.3843 26.9177C40.6592 26.9177 40.9046 26.9748 41.1203 27.089C41.3403 27.2032 41.5116 27.3724 41.6343 27.5966C41.7612 27.8208 41.8246 28.0915 41.8246 28.4088V30.4709H41.1076V28.5167C41.1076 28.2036 41.0294 27.9646 40.8729 27.7997C40.7164 27.6305 40.5027 27.5459 40.232 27.5459C39.9613 27.5459 39.7456 27.6305 39.5848 27.7997C39.4283 27.9646 39.35 28.2036 39.35 28.5167V30.4709H38.633V28.5167C38.633 28.2036 38.5548 27.9646 38.3983 27.7997C38.2418 27.6305 38.0281 27.5459 37.7574 27.5459C37.4867 27.5459 37.271 27.6305 37.1102 27.7997C36.9537 27.9646 36.8755 28.2036 36.8755 28.5167V30.4709H36.1521V26.9748H36.8755V27.3745C36.9939 27.2307 37.1441 27.1186 37.326 27.0382C37.5079 26.9579 37.7024 26.9177 37.9097 26.9177C38.1889 26.9177 38.4385 26.9769 38.6584 27.0954C38.8784 27.2138 39.0476 27.3851 39.166 27.6093C39.2718 27.3978 39.4368 27.2307 39.661 27.108C39.8851 26.9811 40.1263 26.9177 40.3843 26.9177ZM44.0141 30.5281C43.7391 30.5281 43.4917 30.4794 43.2717 30.3821C43.056 30.2806 42.8847 30.1452 42.7578 29.976C42.6309 29.8026 42.5632 29.6101 42.5547 29.3986H43.3034C43.3161 29.5467 43.3859 29.6715 43.5128 29.773C43.644 29.8703 43.8068 29.9189 44.0014 29.9189C44.2044 29.9189 44.361 29.8809 44.4709 29.8047C44.5851 29.7243 44.6423 29.6228 44.6423 29.5001C44.6423 29.369 44.5788 29.2717 44.4519 29.2083C44.3292 29.1448 44.1325 29.075 43.8618 28.9989C43.5995 28.927 43.3859 28.8572 43.221 28.7895C43.056 28.7218 42.9122 28.6182 42.7895 28.4786C42.671 28.339 42.6118 28.155 42.6118 27.9266C42.6118 27.7404 42.6668 27.5712 42.7768 27.419C42.8868 27.2624 43.0433 27.1398 43.2463 27.0509C43.4536 26.9621 43.6905 26.9177 43.957 26.9177C44.3546 26.9177 44.674 27.0192 44.9151 27.2223C45.1604 27.4211 45.2916 27.6939 45.3085 28.0408H44.5851C44.5725 27.8843 44.509 27.7595 44.3948 27.6664C44.2806 27.5734 44.1262 27.5268 43.9316 27.5268C43.7413 27.5268 43.5953 27.5628 43.4938 27.6347C43.3923 27.7066 43.3415 27.8018 43.3415 27.9202C43.3415 28.0133 43.3754 28.0915 43.443 28.155C43.5107 28.2184 43.5932 28.2692 43.6905 28.3073C43.7878 28.3411 43.9316 28.3855 44.122 28.4405C44.3758 28.5082 44.583 28.578 44.7438 28.6499C44.9087 28.7176 45.0505 28.8191 45.1689 28.9545C45.2873 29.0898 45.3487 29.2696 45.3529 29.4938C45.3529 29.6926 45.2979 29.8703 45.1879 30.0268C45.078 30.1833 44.9214 30.306 44.7184 30.3948C44.5196 30.4836 44.2848 30.5281 44.0141 30.5281Z" fill="white"/>
</g>
<defs>
<filter id="filter0_d_1272_1815" x="0.856492" y="0.0905762" width="49.4921" height="39.974" filterUnits="userSpaceOnUse" color-interpolation-filters="sRGB">
<feFlood flood-opacity="0" result="BackgroundImageFix"/>
<feColorMatrix in="SourceAlpha" type="matrix" values="0 0 0 0 0 0 0 0 0 0 0 0 0 0 0 0 0 0 127 0" result="hardAlpha"/>
<feOffset dy="2.53804"/>
<feGaussianBlur stdDeviation="1.26902"/>
<feComposite in2="hardAlpha" operator="out"/>
<feColorMatrix type="matrix" values="0 0 0 0 0 0 0 0 0 0 0 0 0 0 0 0 0 0 0.25 0"/>
<feBlend mode="normal" in2="BackgroundImageFix" result="effect1_dropShadow_1272_1815"/>
<feBlend mode="normal" in="SourceGraphic" in2="effect1_dropShadow_1272_1815" result="shape"/>
</filter>
</defs>
</svg>
