<svg width="40" height="43" viewBox="0 0 40 43" fill="none" xmlns="http://www.w3.org/2000/svg">
<g filter="url(#filter0_d_1272_1668)">
<mask id="mask0_1272_1668" style="mask-type:luminance" maskUnits="userSpaceOnUse" x="4" y="0" width="33" height="36">
<path d="M36.175 0H4V35.75H36.175V0Z" fill="white"/>
</mask>
<g mask="url(#mask0_1272_1668)">
<path d="M9.02441 31.5606V4.18945C9.02441 3.26812 9.4261 2.45125 10.0453 1.94251L8.37922 1.47971C8.1834 1.42539 7.97854 1.39648 7.76758 1.39648C6.37934 1.39648 5.25391 2.64697 5.25391 4.18945V31.5606C5.25391 33.103 6.37934 34.3535 7.76758 34.3535H11.5381C10.1498 34.3535 9.02441 33.103 9.02441 31.5606Z" fill="#D4C7FF"/>
<path d="M24.8594 9.77539H32.4004C33.7886 9.77539 34.9141 11.0259 34.9141 12.5684V31.5605C34.9141 33.103 33.7886 34.3535 32.4004 34.3535H24.8594" stroke="#000080" stroke-width="3.20565" stroke-miterlimit="10" stroke-linecap="round" stroke-linejoin="round"/>
<path d="M10.2812 34.3535V26.5332H15.3086V34.3535" stroke="#000080" stroke-width="3.20565" stroke-miterlimit="10" stroke-linecap="round" stroke-linejoin="round"/>
<path d="M10.2812 20.9473H15.3086" stroke="#F39322" stroke-width="3.20565" stroke-miterlimit="10" stroke-linecap="round" stroke-linejoin="round"/>
<path d="M10.2812 15.3611H15.3086" stroke="#F39322" stroke-width="3.20565" stroke-miterlimit="10" stroke-linecap="round" stroke-linejoin="round"/>
<path d="M10.2812 9.77539H15.3086" stroke="#F39322" stroke-width="3.20565" stroke-miterlimit="10" stroke-linecap="round" stroke-linejoin="round"/>
<path d="M24.8594 20.9473H29.8867" stroke="#000080" stroke-width="3.20565" stroke-miterlimit="10" stroke-linecap="round" stroke-linejoin="round"/>
<path d="M24.8594 15.3611H29.8867" stroke="#000080" stroke-width="3.20565" stroke-miterlimit="10" stroke-linecap="round" stroke-linejoin="round"/>
<path d="M8.37922 1.47971L18.4339 4.27268C19.5266 4.57621 20.3359 5.67434 20.3359 6.98244V31.5606C20.3359 33.103 19.2105 34.3535 17.8223 34.3535H7.76758C6.37934 34.3535 5.25391 33.103 5.25391 31.5606V4.18945C5.25391 2.64697 6.37934 1.39648 7.76758 1.39648C7.97854 1.39648 8.1834 1.42539 8.37922 1.47971Z" stroke="#000080" stroke-width="3.20565" stroke-miterlimit="10" stroke-linecap="round" stroke-linejoin="round"/>
<path d="M24.8594 34.3535V26.5332H29.8867V34.3535" stroke="#000080" stroke-width="3.20565" stroke-miterlimit="10" stroke-linecap="round" stroke-linejoin="round"/>
</g>
</g>
<defs>
<filter id="filter0_d_1272_1668" x="0.425" y="0" width="39.3258" height="42.9" filterUnits="userSpaceOnUse" color-interpolation-filters="sRGB">
<feFlood flood-opacity="0" result="BackgroundImageFix"/>
<feColorMatrix in="SourceAlpha" type="matrix" values="0 0 0 0 0 0 0 0 0 0 0 0 0 0 0 0 0 0 127 0" result="hardAlpha"/>
<feOffset dy="3.575"/>
<feGaussianBlur stdDeviation="1.7875"/>
<feComposite in2="hardAlpha" operator="out"/>
<feColorMatrix type="matrix" values="0 0 0 0 0 0 0 0 0 0 0 0 0 0 0 0 0 0 0.25 0"/>
<feBlend mode="normal" in2="BackgroundImageFix" result="effect1_dropShadow_1272_1668"/>
<feBlend mode="normal" in="SourceGraphic" in2="effect1_dropShadow_1272_1668" result="shape"/>
</filter>
</defs>
</svg>
