<svg width="51" height="40" viewBox="0 0 51 40" fill="none" xmlns="http://www.w3.org/2000/svg">
<g filter="url(#filter0_d_1272_1841)">
<rect x="3.39453" y="0.0131836" width="44.4157" height="34.898" rx="5.07608" fill="#000080"/>
<rect x="3.87041" y="0.489066" width="43.4639" height="33.9463" rx="4.6002" stroke="#F39322" stroke-width="0.951765"/>
</g>
<path d="M16.4844 6.97559H22.5415C23.2547 6.97559 23.9387 7.2589 24.443 7.76321L27.2409 10.5611" stroke="white" stroke-width="0.951765" stroke-linecap="round" stroke-linejoin="round"/>
<path d="M19.1735 15.0427H16.4844" stroke="white" stroke-width="0.951765" stroke-linecap="round" stroke-linejoin="round"/>
<path d="M22.312 9.66479L24.1047 11.4575C24.5998 11.9526 24.5998 12.7552 24.1047 13.2503C23.6097 13.7454 22.807 13.7454 22.312 13.2503V13.2503C21.5694 12.5077 20.2844 12.626 19.2377 12.5406C18.8376 12.508 18.4429 12.3654 18.1016 12.1094L17.8301 11.9057" stroke="white" stroke-width="0.951765" stroke-linecap="round" stroke-linejoin="round"/>
<path d="M19.1758 12.802V16.8357C19.1758 18.5259 19.1758 19.371 19.7009 19.8961C20.2259 20.4212 21.0711 20.4212 22.7613 20.4212H30.8287C32.5189 20.4212 33.364 20.4212 33.8891 19.8961C34.4142 19.371 34.4142 18.5259 34.4142 16.8357V14.1465C34.4142 12.4563 34.4142 11.6112 33.8891 11.0861C33.364 10.561 32.5189 10.561 30.8287 10.561H23.2095" stroke="white" stroke-width="0.951765" stroke-linecap="round" stroke-linejoin="round"/>
<path d="M28.3619 15.491C28.3619 16.3574 27.6596 17.0597 26.7933 17.0597C25.9269 17.0597 25.2246 16.3574 25.2246 15.491C25.2246 14.6247 25.9269 13.9224 26.7933 13.9224C27.6596 13.9224 28.3619 14.6247 28.3619 15.491Z" stroke="white" stroke-width="0.951765" stroke-linecap="round" stroke-linejoin="round"/>
<path d="M7.93544 26.4276V25.7677H9.25522V30.3933H8.52553V26.4276H7.93544ZM10.6487 29.4098C11.0547 29.0587 11.3741 28.7711 11.6068 28.5469C11.8437 28.3185 12.0404 28.0816 12.1969 27.8362C12.3534 27.5909 12.4316 27.3455 12.4316 27.1002C12.4316 26.8464 12.3703 26.6476 12.2476 26.5038C12.1292 26.3599 11.9409 26.288 11.6829 26.288C11.4333 26.288 11.2388 26.3684 11.0992 26.5291C10.9638 26.6857 10.8919 26.8972 10.8834 27.1637H10.1855C10.1982 26.6814 10.342 26.3134 10.6169 26.0596C10.8961 25.8016 11.2493 25.6726 11.6766 25.6726C12.1376 25.6726 12.4972 25.7995 12.7552 26.0533C13.0175 26.3071 13.1486 26.6455 13.1486 27.0685C13.1486 27.373 13.0704 27.667 12.9139 27.9504C12.7616 28.2296 12.5776 28.4813 12.3618 28.7055C12.1503 28.9255 11.8796 29.1814 11.5497 29.4733L11.2641 29.7271H13.2755V30.3299H10.1918V29.8032L10.6487 29.4098ZM17.0947 25.9835C17.5643 25.9835 17.9746 26.0744 18.3257 26.2563C18.681 26.434 18.9539 26.692 19.1442 27.0304C19.3388 27.3646 19.4361 27.7559 19.4361 28.2043C19.4361 28.6526 19.3388 29.0418 19.1442 29.3717C18.9539 29.7017 18.681 29.9555 18.3257 30.1332C17.9746 30.3066 17.5643 30.3933 17.0947 30.3933H15.6544V25.9835H17.0947ZM17.0947 29.8032C17.6108 29.8032 18.0063 29.6636 18.2813 29.3844C18.5562 29.1053 18.6937 28.7119 18.6937 28.2043C18.6937 27.6924 18.5562 27.2927 18.2813 27.005C18.0063 26.7174 17.6108 26.5736 17.0947 26.5736H16.3777V29.8032H17.0947ZM23.3573 28.5596C23.3573 28.6907 23.3488 28.8092 23.3319 28.9149H20.6606C20.6817 29.1941 20.7854 29.4183 20.9715 29.5875C21.1576 29.7567 21.386 29.8413 21.6568 29.8413C22.0459 29.8413 22.3209 29.6784 22.4816 29.3527H23.2621C23.1563 29.6742 22.9639 29.9386 22.6847 30.1459C22.4097 30.3489 22.0671 30.4504 21.6568 30.4504C21.3226 30.4504 21.0223 30.3764 20.7558 30.2283C20.4935 30.0761 20.2862 29.8646 20.1339 29.5938C19.9859 29.3189 19.9119 29.0016 19.9119 28.6421C19.9119 28.2825 19.9838 27.9674 20.1276 27.6966C20.2756 27.4217 20.4808 27.2102 20.7431 27.0621C21.0096 26.9141 21.3141 26.8401 21.6568 26.8401C21.9867 26.8401 22.2807 26.912 22.5387 27.0558C22.7968 27.1996 22.9977 27.4027 23.1415 27.6649C23.2853 27.923 23.3573 28.2212 23.3573 28.5596ZM22.6022 28.3312C22.598 28.0647 22.5028 27.851 22.3167 27.6903C22.1305 27.5296 21.9 27.4492 21.625 27.4492C21.3755 27.4492 21.1618 27.5296 20.9842 27.6903C20.8065 27.8468 20.7008 28.0604 20.6669 28.3312H22.6022ZM24.7924 27.4111C24.9151 27.2504 25.0822 27.115 25.2937 27.005C25.5052 26.895 25.7442 26.8401 26.0107 26.8401C26.3153 26.8401 26.5923 26.9162 26.8419 27.0685C27.0957 27.2165 27.2945 27.4259 27.4383 27.6966C27.5822 27.9674 27.6541 28.2783 27.6541 28.6294C27.6541 28.9805 27.5822 29.2956 27.4383 29.5748C27.2945 29.8497 27.0957 30.0655 26.8419 30.222C26.5923 30.3743 26.3153 30.4504 26.0107 30.4504C25.7442 30.4504 25.5073 30.3975 25.3 30.2918C25.0928 30.1818 24.9236 30.0464 24.7924 29.8857V32.0557H24.0691V26.8972H24.7924V27.4111ZM26.918 28.6294C26.918 28.3883 26.8673 28.181 26.7658 28.0076C26.6685 27.8299 26.5373 27.6966 26.3724 27.6078C26.2116 27.5148 26.0382 27.4682 25.8521 27.4682C25.6702 27.4682 25.4967 27.5148 25.3318 27.6078C25.171 27.7009 25.0399 27.8362 24.9384 28.0139C24.8411 28.1916 24.7924 28.4009 24.7924 28.6421C24.7924 28.8832 24.8411 29.0947 24.9384 29.2766C25.0399 29.4542 25.171 29.5896 25.3318 29.6827C25.4967 29.7757 25.6702 29.8223 25.8521 29.8223C26.0382 29.8223 26.2116 29.7757 26.3724 29.6827C26.5373 29.5854 26.6685 29.4458 26.7658 29.2639C26.8673 29.082 26.918 28.8705 26.918 28.6294ZM29.8859 30.4504C29.5559 30.4504 29.2577 30.3764 28.9912 30.2283C28.7247 30.0761 28.5153 29.8646 28.363 29.5938C28.2108 29.3189 28.1346 29.0016 28.1346 28.6421C28.1346 28.2867 28.2129 27.9716 28.3694 27.6966C28.5259 27.4217 28.7395 27.2102 29.0102 27.0621C29.281 26.9141 29.5834 26.8401 29.9176 26.8401C30.2518 26.8401 30.5542 26.9141 30.8249 27.0621C31.0957 27.2102 31.3093 27.4217 31.4658 27.6966C31.6223 27.9716 31.7006 28.2867 31.7006 28.6421C31.7006 28.9974 31.6202 29.3125 31.4594 29.5875C31.2987 29.8624 31.0787 30.0761 30.7996 30.2283C30.5246 30.3764 30.22 30.4504 29.8859 30.4504ZM29.8859 29.8223C30.072 29.8223 30.2454 29.7778 30.4062 29.689C30.5711 29.6002 30.7044 29.4669 30.8059 29.2893C30.9074 29.1116 30.9582 28.8959 30.9582 28.6421C30.9582 28.3883 30.9095 28.1746 30.8122 28.0012C30.715 27.8235 30.5859 27.6903 30.4252 27.6015C30.2645 27.5126 30.091 27.4682 29.9049 27.4682C29.7188 27.4682 29.5453 27.5126 29.3846 27.6015C29.2281 27.6903 29.1033 27.8235 29.0102 28.0012C28.9172 28.1746 28.8706 28.3883 28.8706 28.6421C28.8706 29.0185 28.9658 29.3104 29.1562 29.5177C29.3508 29.7207 29.594 29.8223 29.8859 29.8223ZM33.6846 30.4504C33.4097 30.4504 33.1622 30.4018 32.9423 30.3045C32.7265 30.203 32.5552 30.0676 32.4283 29.8984C32.3014 29.725 32.2337 29.5325 32.2253 29.321H32.974C32.9867 29.469 33.0565 29.5938 33.1834 29.6953C33.3145 29.7926 33.4774 29.8413 33.672 29.8413C33.875 29.8413 34.0315 29.8032 34.1415 29.7271C34.2557 29.6467 34.3128 29.5452 34.3128 29.4225C34.3128 29.2914 34.2494 29.1941 34.1225 29.1306C33.9998 29.0672 33.8031 28.9974 33.5324 28.9212C33.2701 28.8493 33.0565 28.7795 32.8915 28.7119C32.7265 28.6442 32.5827 28.5405 32.46 28.4009C32.3416 28.2614 32.2824 28.0773 32.2824 27.8489C32.2824 27.6628 32.3374 27.4936 32.4474 27.3413C32.5573 27.1848 32.7138 27.0621 32.9169 26.9733C33.1242 26.8845 33.361 26.8401 33.6275 26.8401C34.0252 26.8401 34.3445 26.9416 34.5856 27.1446C34.831 27.3434 34.9621 27.6163 34.979 27.9631H34.2557C34.243 27.8066 34.1796 27.6818 34.0654 27.5888C33.9511 27.4957 33.7967 27.4492 33.6022 27.4492C33.4118 27.4492 33.2659 27.4851 33.1643 27.5571C33.0628 27.629 33.0121 27.7241 33.0121 27.8426C33.0121 27.9356 33.0459 28.0139 33.1136 28.0773C33.1813 28.1408 33.2638 28.1916 33.361 28.2296C33.4583 28.2635 33.6022 28.3079 33.7925 28.3629C34.0463 28.4306 34.2536 28.5004 34.4143 28.5723C34.5793 28.6399 34.721 28.7415 34.8395 28.8768C34.9579 29.0122 35.0192 29.192 35.0235 29.4162C35.0235 29.615 34.9685 29.7926 34.8585 29.9492C34.7485 30.1057 34.592 30.2283 34.389 30.3172C34.1901 30.406 33.9554 30.4504 33.6846 30.4504ZM36.1731 26.434C36.0419 26.434 35.9319 26.3896 35.8431 26.3007C35.7543 26.2119 35.7099 26.1019 35.7099 25.9708C35.7099 25.8396 35.7543 25.7297 35.8431 25.6408C35.9319 25.552 36.0419 25.5076 36.1731 25.5076C36.3 25.5076 36.4078 25.552 36.4967 25.6408C36.5855 25.7297 36.6299 25.8396 36.6299 25.9708C36.6299 26.1019 36.5855 26.2119 36.4967 26.3007C36.4078 26.3896 36.3 26.434 36.1731 26.434ZM36.5284 26.8972V30.3933H35.805V26.8972H36.5284ZM38.322 27.4873V29.4225C38.322 29.5536 38.3516 29.6488 38.4108 29.708C38.4743 29.763 38.58 29.7905 38.7281 29.7905H39.1722V30.3933H38.6012C38.2754 30.3933 38.0259 30.3172 37.8524 30.1649C37.679 30.0126 37.5923 29.7651 37.5923 29.4225V27.4873H37.1799V26.8972H37.5923V26.0279H38.322V26.8972H39.1722V27.4873H38.322ZM41.1079 30.4504C40.833 30.4504 40.5855 30.4018 40.3655 30.3045C40.1498 30.203 39.9785 30.0676 39.8516 29.8984C39.7247 29.725 39.657 29.5325 39.6485 29.321H40.3973C40.41 29.469 40.4798 29.5938 40.6067 29.6953C40.7378 29.7926 40.9006 29.8413 41.0952 29.8413C41.2983 29.8413 41.4548 29.8032 41.5648 29.7271C41.679 29.6467 41.7361 29.5452 41.7361 29.4225C41.7361 29.2914 41.6726 29.1941 41.5457 29.1306C41.4231 29.0672 41.2264 28.9974 40.9556 28.9212C40.6934 28.8493 40.4798 28.7795 40.3148 28.7119C40.1498 28.6442 40.006 28.5405 39.8833 28.4009C39.7649 28.2614 39.7056 28.0773 39.7056 27.8489C39.7056 27.6628 39.7606 27.4936 39.8706 27.3413C39.9806 27.1848 40.1371 27.0621 40.3402 26.9733C40.5474 26.8845 40.7843 26.8401 41.0508 26.8401C41.4484 26.8401 41.7678 26.9416 42.0089 27.1446C42.2543 27.3434 42.3854 27.6163 42.4023 27.9631H41.679C41.6663 27.8066 41.6028 27.6818 41.4886 27.5888C41.3744 27.4957 41.22 27.4492 41.0254 27.4492C40.8351 27.4492 40.6891 27.4851 40.5876 27.5571C40.4861 27.629 40.4353 27.7241 40.4353 27.8426C40.4353 27.9356 40.4692 28.0139 40.5369 28.0773C40.6045 28.1408 40.687 28.1916 40.7843 28.2296C40.8816 28.2635 41.0254 28.3079 41.2158 28.3629C41.4696 28.4306 41.6769 28.5004 41.8376 28.5723C42.0026 28.6399 42.1443 28.7415 42.2627 28.8768C42.3812 29.0122 42.4425 29.192 42.4467 29.4162C42.4467 29.615 42.3917 29.7926 42.2818 29.9492C42.1718 30.1057 42.0153 30.2283 41.8122 30.3172C41.6134 30.406 41.3786 30.4504 41.1079 30.4504Z" fill="white"/>
<defs>
<filter id="filter0_d_1272_1841" x="0.856492" y="0.0131836" width="49.4921" height="39.974" filterUnits="userSpaceOnUse" color-interpolation-filters="sRGB">
<feFlood flood-opacity="0" result="BackgroundImageFix"/>
<feColorMatrix in="SourceAlpha" type="matrix" values="0 0 0 0 0 0 0 0 0 0 0 0 0 0 0 0 0 0 127 0" result="hardAlpha"/>
<feOffset dy="2.53804"/>
<feGaussianBlur stdDeviation="1.26902"/>
<feComposite in2="hardAlpha" operator="out"/>
<feColorMatrix type="matrix" values="0 0 0 0 0 0 0 0 0 0 0 0 0 0 0 0 0 0 0.25 0"/>
<feBlend mode="normal" in2="BackgroundImageFix" result="effect1_dropShadow_1272_1841"/>
<feBlend mode="normal" in="SourceGraphic" in2="effect1_dropShadow_1272_1841" result="shape"/>
</filter>
</defs>
</svg>
