<svg width="345" height="154" viewBox="0 0 345 154" fill="none" xmlns="http://www.w3.org/2000/svg">
<g clip-path="url(#clip0_697_566)">
<path d="M9.6543 135.247C9.65544 133.691 10.2514 132.199 11.3112 131.099C12.371 129.999 13.808 129.381 15.3062 129.381C16.8044 129.381 18.2414 129.999 19.3012 131.099C20.361 132.199 20.957 133.691 20.9581 135.247" fill="#F2F2F2"/>
<path d="M15.3065 135.247C15.2659 135.247 15.2269 135.231 15.1982 135.201C15.1695 135.171 15.1533 135.131 15.1533 135.089V131.995C15.1533 131.953 15.1695 131.912 15.1982 131.883C15.2269 131.853 15.2659 131.836 15.3065 131.836C15.3471 131.836 15.3861 131.853 15.4148 131.883C15.4435 131.912 15.4597 131.953 15.4597 131.995V135.089C15.4597 135.131 15.4435 135.171 15.4148 135.201C15.3861 135.231 15.3471 135.247 15.3065 135.247Z" fill="#CCCCCC"/>
<path d="M15.3061 134.184C15.2696 134.184 15.2343 134.171 15.2067 134.146L13.3736 132.512C13.3582 132.498 13.3455 132.482 13.3363 132.463C13.327 132.444 13.3215 132.424 13.3198 132.403C13.3182 132.382 13.3206 132.361 13.3268 132.341C13.3331 132.321 13.343 132.303 13.3562 132.287C13.3693 132.271 13.3854 132.258 13.4034 132.249C13.4214 132.239 13.441 132.234 13.4612 132.232C13.4813 132.231 13.5015 132.233 13.5206 132.24C13.5398 132.247 13.5574 132.257 13.5726 132.271L15.4057 133.905C15.4294 133.926 15.4462 133.954 15.4541 133.986C15.4619 134.017 15.4603 134.05 15.4494 134.081C15.4386 134.111 15.419 134.137 15.3934 134.156C15.3678 134.174 15.3373 134.184 15.3061 134.184L15.3061 134.184Z" fill="#CCCCCC"/>
<path d="M27.0684 135.247C27.0695 133.691 27.6655 132.199 28.7253 131.099C29.7851 129.999 31.222 129.381 32.7203 129.381C34.2185 129.381 35.6554 129.999 36.7153 131.099C37.7751 132.199 38.371 133.691 38.3722 135.247" fill="#F2F2F2"/>
<path d="M32.7206 135.247C32.6799 135.247 32.641 135.231 32.6122 135.201C32.5835 135.171 32.5674 135.131 32.5674 135.089V131.995C32.5674 131.953 32.5835 131.912 32.6122 131.883C32.641 131.853 32.6799 131.836 32.7206 131.836C32.7612 131.836 32.8001 131.853 32.8289 131.883C32.8576 131.912 32.8737 131.953 32.8737 131.995V135.089C32.8737 135.131 32.8576 135.171 32.8289 135.201C32.8001 135.231 32.7612 135.247 32.7206 135.247Z" fill="#CCCCCC"/>
<path d="M32.7193 134.184C32.6828 134.184 32.6475 134.171 32.6199 134.146L30.7868 132.512C30.7714 132.498 30.7587 132.482 30.7494 132.463C30.7402 132.444 30.7346 132.424 30.7329 132.403C30.7313 132.382 30.7337 132.361 30.7399 132.341C30.7461 132.321 30.7561 132.303 30.7693 132.287C30.7824 132.271 30.7985 132.258 30.8165 132.249C30.8345 132.239 30.8542 132.234 30.8743 132.232C30.8945 132.231 30.9147 132.233 30.9338 132.24C30.953 132.247 30.9706 132.257 30.9858 132.271L32.8189 133.905C32.8425 133.926 32.8594 133.954 32.8673 133.986C32.8751 134.017 32.8735 134.05 32.8626 134.081C32.8518 134.111 32.8322 134.137 32.8066 134.156C32.781 134.174 32.7505 134.184 32.7193 134.184L32.7193 134.184Z" fill="#CCCCCC"/>
<path d="M258.404 23.0188C264.405 23.0188 269.269 17.9661 269.269 11.7332C269.269 5.50036 264.405 0.447632 258.404 0.447632C252.403 0.447632 247.538 5.50036 247.538 11.7332C247.538 17.9661 252.403 23.0188 258.404 23.0188Z" fill="#F39322"/>
<path d="M35.8222 147.844C41.2776 147.844 45.7001 146.772 45.7001 145.45C45.7001 144.128 41.2776 143.056 35.8222 143.056C30.3668 143.056 25.9443 144.128 25.9443 145.45C25.9443 146.772 30.3668 147.844 35.8222 147.844Z" fill="#F2F2F2"/>
<path d="M30.7802 47.1813C33.3709 38.7792 39.6966 32.263 47.1986 28.3874C56.0996 23.7891 66.3277 23.2684 75.9923 25.0581C86.4253 26.9901 96.1762 31.4438 105.615 36.3042C114.872 41.0715 123.981 46.1054 133.609 50.0451C152.83 57.8991 173.203 62.2821 193.846 63.0049C212.427 63.6487 232.293 61.5341 248.203 50.6872C262.78 40.7484 272.056 24.3522 276.887 7.26104C277.505 5.07297 278.055 2.86609 278.536 0.640397C278.677 -0.00251241 277.725 -0.277011 277.584 0.367656C273.687 18.2152 265.377 35.8547 251.178 47.2316C235.821 59.5364 215.665 62.3809 196.804 62.0554C175.935 61.6769 155.288 57.5385 135.782 49.8245C125.906 45.9195 116.587 40.8489 107.149 35.9536C97.9184 31.1658 88.4285 26.684 78.2783 24.4758C69.0097 22.4594 59.0863 22.3366 50.15 25.9246C42.7917 28.8791 36.0824 34.1452 32.156 41.3491C31.1987 43.1145 30.4185 44.9775 29.8277 46.9086C29.6334 47.5389 30.5868 47.8087 30.7802 47.1813Z" fill="#F2F2F2"/>
<path d="M171.804 125.742C171.892 125.742 171.975 125.706 172.037 125.641C172.099 125.577 172.133 125.49 172.133 125.4C172.133 125.309 172.099 125.222 172.037 125.158C171.975 125.094 171.892 125.058 171.804 125.058H168.676V123.69H171.804C171.892 123.69 171.975 123.654 172.037 123.59C172.099 123.525 172.133 123.438 172.133 123.348C172.133 123.257 172.099 123.17 172.037 123.106C171.975 123.042 171.892 123.006 171.804 123.006H145.134C145.047 123.006 144.963 123.042 144.901 123.106C144.839 123.17 144.805 123.257 144.805 123.348C144.805 123.438 144.839 123.525 144.901 123.59C144.963 123.654 145.047 123.69 145.134 123.69H148.262V125.058H145.134C145.047 125.058 144.963 125.094 144.901 125.158C144.839 125.222 144.805 125.309 144.805 125.4C144.805 125.49 144.839 125.577 144.901 125.641C144.963 125.706 145.047 125.742 145.134 125.742H148.262V127.11H145.134C145.047 127.11 144.963 127.146 144.901 127.21C144.839 127.274 144.805 127.361 144.805 127.452C144.805 127.542 144.839 127.629 144.901 127.693C144.963 127.758 145.047 127.794 145.134 127.794H148.262V129.161H145.463C145.289 129.161 145.121 129.234 144.998 129.362C144.874 129.49 144.805 129.664 144.805 129.845C144.805 130.027 144.874 130.201 144.998 130.329C145.121 130.457 145.289 130.529 145.463 130.529H148.128C148.108 130.584 148.098 130.642 148.097 130.7V135.488C148.097 135.624 148.149 135.755 148.242 135.851C148.335 135.947 148.46 136.001 148.591 136.001C148.722 136.001 148.848 135.947 148.94 135.851C149.033 135.755 149.085 135.624 149.085 135.488V130.7C149.085 130.642 149.074 130.584 149.055 130.529H167.883C167.864 130.584 167.854 130.642 167.853 130.7V135.488C167.853 135.624 167.905 135.755 167.998 135.851C168.09 135.947 168.216 136.001 168.347 136.001C168.478 136.001 168.604 135.947 168.696 135.851C168.789 135.755 168.841 135.624 168.841 135.488V130.7C168.84 130.642 168.83 130.584 168.811 130.529H171.475C171.65 130.529 171.817 130.457 171.941 130.329C172.064 130.201 172.133 130.027 172.133 129.845C172.133 129.664 172.064 129.49 171.941 129.362C171.817 129.234 171.65 129.161 171.475 129.161H168.676V127.794H171.804C171.892 127.794 171.975 127.758 172.037 127.693C172.099 127.629 172.133 127.542 172.133 127.452C172.133 127.361 172.099 127.274 172.037 127.21C171.975 127.146 171.892 127.11 171.804 127.11H168.676V125.742H171.804ZM148.92 123.69H168.018V125.058H148.92V123.69ZM168.018 129.161H148.92V127.794H168.018V129.161ZM168.018 127.11H148.92V125.742H168.018V127.11Z" fill="#3F3D56"/>
<path d="M71.3824 111.388C71.3824 105.348 66.6651 91.0155 60.846 91.0155C55.0269 91.0155 50.3096 105.348 50.3096 111.388C50.3096 114.29 51.4197 117.074 53.3956 119.126C55.3716 121.178 58.0516 122.331 60.846 122.331C63.6404 122.331 66.3204 121.178 68.2964 119.126C70.2723 117.074 71.3824 114.29 71.3824 111.388H71.3824Z" fill="#E6E6E6"/>
<path d="M68.7486 111.388C68.7486 105.348 64.0313 91.0155 58.2122 91.0155C52.3931 91.0155 47.6758 105.348 47.6758 111.388C47.6758 114.29 48.7859 117.074 50.7618 119.126C52.7378 121.178 55.4178 122.331 58.2122 122.331C61.0066 122.331 63.6866 121.178 65.6626 119.126C67.6385 117.074 68.7486 114.29 68.7486 111.388H68.7486Z" fill="#F2F2F2"/>
<path d="M58.5412 135.857C58.4539 135.857 58.3701 135.821 58.3084 135.757C58.2466 135.693 58.2119 135.606 58.2119 135.515V105.03C58.2119 104.94 58.2466 104.853 58.3084 104.788C58.3701 104.724 58.4539 104.688 58.5412 104.688C58.6285 104.688 58.7123 104.724 58.774 104.788C58.8357 104.853 58.8704 104.94 58.8704 105.03V135.515C58.8704 135.606 58.8357 135.693 58.774 135.757C58.7123 135.821 58.6285 135.857 58.5412 135.857Z" fill="#CCCCCC"/>
<path d="M58.5411 110.028C58.476 110.028 58.4123 110.008 58.3582 109.97C58.3041 109.933 58.2619 109.879 58.237 109.817C58.2121 109.754 58.2055 109.685 58.2182 109.619C58.2309 109.553 58.2623 109.492 58.3083 109.444L62.6143 104.971C62.676 104.907 62.7598 104.871 62.8471 104.871C62.9344 104.871 63.0182 104.907 63.0799 104.971C63.1416 105.036 63.1763 105.123 63.1763 105.213C63.1763 105.304 63.1416 105.391 63.0799 105.455L58.7739 109.928C58.7434 109.959 58.7071 109.985 58.6671 110.002C58.6272 110.019 58.5844 110.028 58.5411 110.028Z" fill="#CCCCCC"/>
<path d="M179.71 135.857C179.623 135.857 179.539 135.821 179.477 135.757C179.416 135.693 179.381 135.606 179.381 135.515V105.03C179.381 104.94 179.416 104.853 179.477 104.788C179.539 104.724 179.623 104.688 179.71 104.688C179.797 104.688 179.881 104.724 179.943 104.788C180.005 104.853 180.039 104.94 180.039 105.03V135.515C180.039 135.606 180.005 135.693 179.943 135.757C179.881 135.821 179.797 135.857 179.71 135.857Z" fill="#3F3D56"/>
<path d="M214.941 111.388C214.941 105.348 210.224 91.0155 204.405 91.0155C198.585 91.0155 193.868 105.348 193.868 111.388C193.868 114.29 194.978 117.074 196.954 119.126C198.93 121.178 201.61 122.331 204.405 122.331C207.199 122.331 209.879 121.178 211.855 119.126C213.831 117.074 214.941 114.29 214.941 111.388H214.941Z" fill="#E6E6E6"/>
<path d="M212.073 111.471C212.073 105.431 207.356 91.0986 201.536 91.0986C195.717 91.0986 191 105.431 191 111.471C191 114.373 192.11 117.157 194.086 119.209C196.062 121.262 198.742 122.415 201.536 122.415C204.331 122.415 207.011 121.262 208.987 119.209C210.963 117.157 212.073 114.373 212.073 111.471H212.073Z" fill="#F2F2F2"/>
<path d="M202.1 135.857C202.012 135.857 201.929 135.821 201.867 135.757C201.805 135.693 201.771 135.606 201.771 135.515V105.03C201.771 104.94 201.805 104.853 201.867 104.788C201.929 104.724 202.012 104.688 202.1 104.688C202.187 104.688 202.271 104.724 202.333 104.788C202.394 104.853 202.429 104.94 202.429 105.03V135.515C202.429 135.606 202.394 135.693 202.333 135.757C202.271 135.821 202.187 135.857 202.1 135.857Z" fill="#CCCCCC"/>
<path d="M202.1 110.028C202.035 110.028 201.971 110.008 201.917 109.97C201.863 109.933 201.82 109.879 201.796 109.817C201.771 109.754 201.764 109.685 201.777 109.619C201.79 109.553 201.821 109.492 201.867 109.444L206.173 104.971C206.235 104.907 206.318 104.871 206.406 104.871C206.493 104.871 206.577 104.907 206.638 104.971C206.7 105.036 206.735 105.123 206.735 105.213C206.735 105.304 206.7 105.391 206.638 105.455L202.333 109.928C202.302 109.959 202.266 109.985 202.226 110.002C202.186 110.019 202.143 110.028 202.1 110.028Z" fill="#CCCCCC"/>
<path d="M93.4432 17.718H88.175C87.7822 17.7175 87.4056 17.5553 87.1278 17.2667C86.85 16.9782 86.6938 16.5871 86.6934 16.1791V3.52552C86.6938 3.1175 86.85 2.72633 87.1278 2.43782C87.4056 2.14931 87.7822 1.98702 88.175 1.98657H93.4432C93.8361 1.98702 94.2127 2.14931 94.4905 2.43782C94.7682 2.72633 94.9245 3.1175 94.9249 3.52552V16.1791C94.9245 16.5871 94.7682 16.9782 94.4905 17.2667C94.2127 17.5553 93.8361 17.7175 93.4432 17.718Z" fill="#E6E6E6"/>
<path d="M114.187 135.704H87.1874C86.4454 135.703 85.734 135.396 85.2093 134.851C84.6846 134.306 84.3895 133.567 84.3887 132.797V19.5989C84.3895 18.8283 84.6846 18.0894 85.2093 17.5444C85.734 16.9995 86.4454 16.6929 87.1874 16.692H114.187C114.929 16.6929 115.64 16.9994 116.165 17.5444C116.69 18.0894 116.985 18.8282 116.986 19.5989V132.797C116.985 133.567 116.69 134.306 116.165 134.851C115.64 135.396 114.929 135.703 114.187 135.704Z" fill="#E6E6E6"/>
<path d="M98.0532 135.704H71.0536C70.3116 135.703 69.6002 135.396 69.0755 134.851C68.5509 134.306 68.2557 133.567 68.2549 132.797V19.5989C68.2557 18.8283 68.5509 18.0894 69.0755 17.5444C69.6002 16.9995 70.3116 16.6929 71.0536 16.692H98.0532C98.7952 16.6929 99.5066 16.9995 100.031 17.5444C100.556 18.0894 100.851 18.8283 100.852 19.5989V132.797C100.851 133.567 100.556 134.306 100.031 134.851C99.5066 135.396 98.7952 135.703 98.0532 135.704Z" fill="#F2F2F2"/>
<path d="M88.5038 17.718H83.2356C82.8428 17.7175 82.4661 17.5553 82.1884 17.2667C81.9106 16.9782 81.7543 16.5871 81.7539 16.1791V3.52552C81.7543 3.1175 81.9106 2.72633 82.1884 2.43782C82.4661 2.14931 82.8428 1.98702 83.2356 1.98657H88.5038C88.8966 1.98702 89.2732 2.14931 89.551 2.43782C89.8288 2.72633 89.985 3.1175 89.9855 3.52552V16.1791C89.985 16.5871 89.8288 16.9782 89.551 17.2667C89.2732 17.5553 88.8966 17.7175 88.5038 17.718Z" fill="#F2F2F2"/>
<path d="M81.5899 42.3411H75.3339C75.1157 42.3409 74.9064 42.2507 74.7521 42.0904C74.5978 41.9301 74.511 41.7128 74.5107 41.4861V31.5685C74.511 31.3418 74.5978 31.1245 74.7521 30.9642C74.9064 30.8039 75.1157 30.7138 75.3339 30.7135H81.5899C81.8081 30.7138 82.0174 30.8039 82.1717 30.9642C82.326 31.1245 82.4128 31.3418 82.413 31.5685V41.4861C82.4128 41.7128 82.326 41.9301 82.1717 42.0904C82.0174 42.2507 81.8081 42.3409 81.5899 42.3411Z" fill="#F39322"/>
<path d="M93.7725 42.3411H87.5165C87.2983 42.3409 87.089 42.2507 86.9347 42.0904C86.7804 41.9301 86.6936 41.7128 86.6934 41.4861V31.5685C86.6936 31.3418 86.7804 31.1245 86.9347 30.9642C87.089 30.8039 87.2983 30.7138 87.5165 30.7135H93.7725C93.9907 30.7138 94.2 30.8039 94.3543 30.9642C94.5086 31.1245 94.5954 31.3418 94.5957 31.5685V41.4861C94.5954 41.7128 94.5086 41.9301 94.3543 42.0904C94.2 42.2507 93.9907 42.3409 93.7725 42.3411Z" fill="#F39322"/>
<path d="M81.5899 60.4664H75.3339C75.1157 60.4662 74.9064 60.376 74.7521 60.2157C74.5978 60.0555 74.511 59.8381 74.5107 59.6115V49.6938C74.511 49.4672 74.5978 49.2498 74.7521 49.0896C74.9064 48.9293 75.1157 48.8391 75.3339 48.8389H81.5899C81.8081 48.8391 82.0174 48.9293 82.1717 49.0896C82.326 49.2498 82.4128 49.4672 82.413 49.6938V59.6115C82.4128 59.8381 82.326 60.0555 82.1717 60.2157C82.0174 60.376 81.8081 60.4662 81.5899 60.4664Z" fill="#F39322"/>
<path d="M93.7725 60.4664H87.5165C87.2983 60.4662 87.089 60.376 86.9347 60.2157C86.7804 60.0555 86.6936 59.8381 86.6934 59.6115V49.6938C86.6936 49.4672 86.7804 49.2498 86.9347 49.0896C87.089 48.9293 87.2983 48.8391 87.5165 48.8389H93.7725C93.9907 48.8391 94.2 48.9293 94.3543 49.0896C94.5086 49.2498 94.5954 49.4672 94.5957 49.6938V59.6115C94.5954 59.8381 94.5086 60.0555 94.3543 60.2157C94.2 60.376 93.9907 60.4662 93.7725 60.4664Z" fill="#F39322"/>
<path d="M81.5899 78.5918H75.3339C75.1157 78.5915 74.9064 78.5014 74.7521 78.3411C74.5978 78.1808 74.511 77.9635 74.5107 77.7368V67.8192C74.511 67.5925 74.5978 67.3752 74.7521 67.2149C74.9064 67.0546 75.1157 66.9645 75.3339 66.9642H81.5899C81.8081 66.9645 82.0174 67.0546 82.1717 67.2149C82.326 67.3752 82.4128 67.5925 82.413 67.8192V77.7368C82.4128 77.9635 82.326 78.1808 82.1717 78.3411C82.0174 78.5014 81.8081 78.5915 81.5899 78.5918Z" fill="#F39322"/>
<path d="M93.7725 78.5918H87.5165C87.2983 78.5915 87.089 78.5014 86.9347 78.3411C86.7804 78.1808 86.6936 77.9635 86.6934 77.7368V67.8192C86.6936 67.5925 86.7804 67.3752 86.9347 67.2149C87.089 67.0546 87.2983 66.9645 87.5165 66.9642H93.7725C93.9907 66.9645 94.2 67.0546 94.3543 67.2149C94.5086 67.3752 94.5954 67.5925 94.5957 67.8192V77.7368C94.5954 77.9635 94.5086 78.1808 94.3543 78.3411C94.2 78.5014 93.9907 78.5915 93.7725 78.5918Z" fill="#F39322"/>
<path d="M81.5899 96.7171H75.3339C75.1157 96.7168 74.9064 96.6267 74.7521 96.4664C74.5978 96.3061 74.511 96.0888 74.5107 95.8621V85.9445C74.511 85.7178 74.5978 85.5005 74.7521 85.3402C74.9064 85.18 75.1157 85.0898 75.3339 85.0895H81.5899C81.8081 85.0898 82.0174 85.18 82.1717 85.3402C82.326 85.5005 82.4128 85.7178 82.413 85.9445V95.8621C82.4128 96.0888 82.326 96.3061 82.1717 96.4664C82.0174 96.6267 81.8081 96.7168 81.5899 96.7171Z" fill="#F39322"/>
<path d="M93.7725 96.7171H87.5165C87.2983 96.7168 87.089 96.6267 86.9347 96.4664C86.7804 96.3061 86.6936 96.0888 86.6934 95.8621V85.9445C86.6936 85.7178 86.7804 85.5005 86.9347 85.3402C87.089 85.18 87.2983 85.0898 87.5165 85.0895H93.7725C93.9907 85.0898 94.2 85.18 94.3543 85.3402C94.5086 85.5005 94.5954 85.7178 94.5957 85.9445V95.8621C94.5954 96.0888 94.5086 96.3061 94.3543 96.4664C94.2 96.6267 93.9907 96.7168 93.7725 96.7171Z" fill="#F39322"/>
<path d="M81.5899 114.842H75.3339C75.1157 114.842 74.9064 114.752 74.7521 114.592C74.5978 114.431 74.511 114.214 74.5107 113.987V104.07C74.511 103.843 74.5978 103.626 74.7521 103.466C74.9064 103.305 75.1157 103.215 75.3339 103.215H81.5899C81.8081 103.215 82.0174 103.305 82.1717 103.466C82.326 103.626 82.4128 103.843 82.413 104.07V113.987C82.4128 114.214 82.326 114.431 82.1717 114.592C82.0174 114.752 81.8081 114.842 81.5899 114.842Z" fill="#F39322"/>
<path d="M93.7725 114.842H87.5165C87.2983 114.842 87.089 114.752 86.9347 114.592C86.7804 114.431 86.6936 114.214 86.6934 113.987V104.07C86.6936 103.843 86.7804 103.626 86.9347 103.466C87.089 103.305 87.2983 103.215 87.5165 103.215H93.7725C93.9907 103.215 94.2 103.305 94.3543 103.466C94.5086 103.626 94.5954 103.843 94.5957 104.07V113.987C94.5954 114.214 94.5086 114.431 94.3543 114.592C94.2 114.752 93.9907 114.842 93.7725 114.842Z" fill="#F39322"/>
<path d="M229.429 77.5658H224.16C223.768 77.5653 223.391 77.403 223.113 77.1145C222.835 76.826 222.679 76.4349 222.679 76.0269V68.8451C222.679 68.4371 222.835 68.0459 223.113 67.7574C223.391 67.4689 223.768 67.3066 224.16 67.3062H229.429C229.821 67.3066 230.198 67.4689 230.476 67.7574C230.754 68.0459 230.91 68.4371 230.91 68.8451V76.0269C230.91 76.4349 230.754 76.826 230.476 77.1145C230.198 77.4031 229.821 77.5653 229.429 77.5658Z" fill="#E6E6E6"/>
<path d="M273.879 136.046H246.88C246.138 136.045 245.426 135.738 244.902 135.193C244.377 134.648 244.082 133.909 244.081 133.139V78.7628C244.082 77.9921 244.377 77.2532 244.902 76.7082C245.426 76.1633 246.138 75.8567 246.88 75.8559H273.879C274.621 75.8567 275.333 76.1633 275.857 76.7082C276.382 77.2532 276.677 77.9921 276.678 78.7628V133.139C276.677 133.909 276.382 134.648 275.857 135.193C275.333 135.738 274.621 136.045 273.879 136.046Z" fill="#E6E6E6"/>
<path d="M257.554 136.19H210.799C210.057 136.189 209.345 135.882 208.821 135.337C208.296 134.792 208.001 134.054 208 133.283V78.9069C208.001 78.1362 208.296 77.3973 208.821 76.8524C209.345 76.3074 210.057 76.0009 210.799 76H257.554C258.296 76.0009 259.007 76.3074 259.532 76.8524C260.057 77.3973 260.352 78.1362 260.353 78.9069V133.283C260.352 134.054 260.057 134.792 259.532 135.337C259.007 135.882 258.296 136.189 257.554 136.19Z" fill="#F2F2F2"/>
<path d="M224.49 77.5658H219.222C218.829 77.5653 218.452 77.403 218.175 77.1145C217.897 76.826 217.741 76.4349 217.74 76.0269V68.8451C217.741 68.4371 217.897 68.0459 218.175 67.7574C218.452 67.4689 218.829 67.3066 219.222 67.3062H224.49C224.883 67.3066 225.26 67.4689 225.537 67.7574C225.815 68.0459 225.971 68.4371 225.972 68.8451V76.0269C225.971 76.4349 225.815 76.826 225.537 77.1145C225.26 77.4031 224.883 77.5653 224.49 77.5658Z" fill="#F2F2F2"/>
<path d="M231.404 102.702H225.148C224.93 102.702 224.721 102.611 224.567 102.451C224.412 102.291 224.325 102.074 224.325 101.847V91.9293C224.325 91.7026 224.412 91.4853 224.567 91.325C224.721 91.1647 224.93 91.0746 225.148 91.0743H231.404C231.623 91.0746 231.832 91.1647 231.986 91.325C232.14 91.4853 232.227 91.7026 232.228 91.9293V101.847C232.227 102.074 232.14 102.291 231.986 102.451C231.832 102.611 231.623 102.702 231.404 102.702Z" fill="#F39322"/>
<path d="M243.587 102.702H237.331C237.113 102.702 236.904 102.611 236.749 102.451C236.595 102.291 236.508 102.074 236.508 101.847V91.9293C236.508 91.7026 236.595 91.4853 236.749 91.325C236.904 91.1647 237.113 91.0746 237.331 91.0743H243.587C243.805 91.0746 244.014 91.1647 244.169 91.325C244.323 91.4853 244.41 91.7026 244.41 91.9293V101.847C244.41 102.074 244.323 102.291 244.169 102.451C244.014 102.611 243.805 102.702 243.587 102.702Z" fill="#F39322"/>
<path d="M231.404 120.827H225.148C224.93 120.827 224.721 120.737 224.567 120.577C224.412 120.416 224.325 120.199 224.325 119.972V110.055C224.325 109.828 224.412 109.611 224.567 109.45C224.721 109.29 224.93 109.2 225.148 109.2H231.404C231.623 109.2 231.832 109.29 231.986 109.45C232.14 109.611 232.227 109.828 232.228 110.055V119.972C232.227 120.199 232.14 120.416 231.986 120.577C231.832 120.737 231.623 120.827 231.404 120.827Z" fill="#F39322"/>
<path d="M243.587 120.827H237.331C237.113 120.827 236.904 120.737 236.749 120.577C236.595 120.416 236.508 120.199 236.508 119.972V110.055C236.508 109.828 236.595 109.611 236.749 109.45C236.904 109.29 237.113 109.2 237.331 109.2H243.587C243.805 109.2 244.014 109.29 244.169 109.45C244.323 109.611 244.41 109.828 244.41 110.055V119.972C244.41 120.199 244.323 120.416 244.169 120.577C244.014 120.737 243.805 120.827 243.587 120.827Z" fill="#F39322"/>
<path d="M344.671 136.217H0.329263C0.241937 136.217 0.158187 136.181 0.0964386 136.116C0.0346898 136.052 0 135.965 0 135.875C0 135.784 0.0346898 135.697 0.0964386 135.633C0.158187 135.569 0.241937 135.533 0.329263 135.533H344.671C344.758 135.533 344.842 135.569 344.904 135.633C344.965 135.697 345 135.784 345 135.875C345 135.965 344.965 136.052 344.904 136.116C344.842 136.181 344.758 136.217 344.671 136.217Z" fill="#E6E6E6"/>
<path d="M119.455 148.186H88.8332C88.7458 148.186 88.6621 148.15 88.6003 148.086C88.5386 148.022 88.5039 147.935 88.5039 147.844C88.5039 147.753 88.5386 147.667 88.6003 147.602C88.6621 147.538 88.7458 147.502 88.8332 147.502H119.455C119.542 147.502 119.626 147.538 119.687 147.602C119.749 147.667 119.784 147.753 119.784 147.844C119.784 147.935 119.749 148.022 119.687 148.086C119.626 148.15 119.542 148.186 119.455 148.186Z" fill="#F39322"/>
<path d="M195.515 148.186H164.894C164.806 148.186 164.723 148.15 164.661 148.086C164.599 148.022 164.564 147.935 164.564 147.844C164.564 147.753 164.599 147.667 164.661 147.602C164.723 147.538 164.806 147.502 164.894 147.502H195.515C195.602 147.502 195.686 147.538 195.748 147.602C195.81 147.667 195.844 147.753 195.844 147.844C195.844 147.935 195.81 148.022 195.748 148.086C195.686 148.15 195.602 148.186 195.515 148.186Z" fill="#F39322"/>
<path d="M271.575 148.186H240.953C240.866 148.186 240.782 148.15 240.72 148.086C240.659 148.022 240.624 147.935 240.624 147.844C240.624 147.753 240.659 147.667 240.72 147.602C240.782 147.538 240.866 147.502 240.953 147.502H271.575C271.662 147.502 271.746 147.538 271.808 147.602C271.869 147.667 271.904 147.753 271.904 147.844C271.904 147.935 271.869 148.022 271.808 148.086C271.746 148.15 271.662 148.186 271.575 148.186Z" fill="#F39322"/>
<path d="M136.906 111.388C136.906 105.348 132.189 91.0155 126.369 91.0155C120.55 91.0155 115.833 105.348 115.833 111.388C115.833 114.29 116.943 117.074 118.919 119.126C120.895 121.178 123.575 122.331 126.369 122.331C129.164 122.331 131.844 121.178 133.82 119.126C135.796 117.074 136.906 114.29 136.906 111.388H136.906Z" fill="#E6E6E6"/>
<path d="M134.272 111.388C134.272 105.348 129.555 91.0155 123.736 91.0155C117.917 91.0155 113.199 105.348 113.199 111.388C113.199 114.29 114.309 117.074 116.285 119.126C118.261 121.178 120.941 122.331 123.736 122.331C126.53 122.331 129.21 121.178 131.186 119.126C133.162 117.074 134.272 114.29 134.272 111.388Z" fill="#F2F2F2"/>
<path d="M124.065 135.857C123.977 135.857 123.894 135.821 123.832 135.757C123.77 135.693 123.735 135.606 123.735 135.515V105.03C123.735 104.94 123.77 104.853 123.832 104.788C123.894 104.724 123.977 104.688 124.065 104.688C124.152 104.688 124.236 104.724 124.297 104.788C124.359 104.853 124.394 104.94 124.394 105.03V135.515C124.394 135.606 124.359 135.693 124.297 135.757C124.236 135.821 124.152 135.857 124.065 135.857Z" fill="#CCCCCC"/>
<path d="M124.065 110.028C123.999 110.028 123.936 110.008 123.882 109.97C123.828 109.933 123.785 109.879 123.76 109.817C123.735 109.754 123.729 109.685 123.742 109.619C123.754 109.553 123.786 109.492 123.832 109.444L128.138 104.971C128.199 104.907 128.283 104.871 128.371 104.871C128.458 104.871 128.542 104.907 128.603 104.971C128.665 105.036 128.7 105.123 128.7 105.213C128.7 105.304 128.665 105.391 128.603 105.455L124.297 109.928C124.267 109.959 124.231 109.985 124.191 110.002C124.151 110.019 124.108 110.028 124.065 110.028Z" fill="#CCCCCC"/>
<path d="M305.159 111.388C305.159 105.348 300.441 91.0155 294.622 91.0155C288.803 91.0155 284.086 105.348 284.086 111.388C284.086 114.29 285.196 117.074 287.172 119.126C289.148 121.178 291.828 122.331 294.622 122.331C297.417 122.331 300.097 121.178 302.073 119.126C304.049 117.074 305.159 114.29 305.159 111.388H305.159Z" fill="#E6E6E6"/>
<path d="M302.525 111.388C302.525 105.348 297.808 91.0155 291.989 91.0155C286.169 91.0155 281.452 105.348 281.452 111.388C281.452 114.29 282.562 117.074 284.538 119.126C286.514 121.178 289.194 122.331 291.989 122.331C294.783 122.331 297.463 121.178 299.439 119.126C301.415 117.074 302.525 114.29 302.525 111.388H302.525Z" fill="#F2F2F2"/>
<path d="M292.318 135.857C292.23 135.857 292.146 135.821 292.085 135.757C292.023 135.693 291.988 135.606 291.988 135.515V105.03C291.988 104.94 292.023 104.853 292.085 104.788C292.146 104.724 292.23 104.688 292.318 104.688C292.405 104.688 292.489 104.724 292.55 104.788C292.612 104.853 292.647 104.94 292.647 105.03V135.515C292.647 135.606 292.612 135.693 292.55 135.757C292.489 135.821 292.405 135.857 292.318 135.857Z" fill="#CCCCCC"/>
<path d="M292.317 110.028C292.252 110.028 292.189 110.008 292.135 109.97C292.08 109.933 292.038 109.879 292.013 109.817C291.988 109.754 291.982 109.685 291.995 109.619C292.007 109.553 292.039 109.492 292.085 109.444L296.391 104.971C296.452 104.907 296.536 104.871 296.623 104.871C296.711 104.871 296.795 104.907 296.856 104.971C296.918 105.036 296.953 105.123 296.953 105.213C296.953 105.304 296.918 105.391 296.856 105.455L292.55 109.928C292.52 109.959 292.483 109.985 292.444 110.002C292.404 110.019 292.361 110.028 292.317 110.028Z" fill="#CCCCCC"/>
<path d="M183.332 115.184H176.088C175.87 115.184 175.66 115.094 175.506 114.934C175.352 114.773 175.265 114.556 175.265 114.329V106.806C175.265 106.579 175.352 106.362 175.506 106.201C175.66 106.041 175.87 105.951 176.088 105.951H183.332C183.55 105.951 183.759 106.041 183.913 106.201C184.068 106.362 184.155 106.579 184.155 106.806V114.329C184.155 114.556 184.068 114.773 183.913 114.934C183.759 115.094 183.55 115.184 183.332 115.184Z" fill="#F39322"/>
<path d="M253.652 118.848C253.731 118.87 253.804 118.909 253.867 118.964C253.93 119.018 253.981 119.086 254.016 119.163C254.051 119.24 254.069 119.323 254.069 119.408C254.069 119.493 254.052 119.577 254.017 119.655L255.449 121.089L254.441 121.323L253.236 119.926C253.115 119.857 253.022 119.745 252.976 119.61C252.929 119.476 252.932 119.328 252.983 119.195C253.034 119.062 253.13 118.954 253.254 118.89C253.377 118.826 253.519 118.811 253.652 118.848H253.652Z" fill="#FFB8B8"/>
<path d="M255.665 122.621L253.898 120.9C253.874 120.876 253.855 120.847 253.841 120.816C253.827 120.784 253.82 120.75 253.819 120.715C253.819 120.68 253.825 120.646 253.837 120.613C253.85 120.581 253.868 120.552 253.892 120.527L254.252 120.148C254.295 120.103 254.352 120.076 254.413 120.071C254.474 120.067 254.534 120.086 254.583 120.124L256.063 121.299L256.986 118.973C257.022 118.881 257.077 118.798 257.145 118.729C257.214 118.66 257.295 118.606 257.385 118.571C257.474 118.535 257.569 118.52 257.665 118.524C257.76 118.529 257.854 118.554 257.94 118.598C258.075 118.666 258.185 118.777 258.254 118.916C258.323 119.055 258.347 119.213 258.322 119.367C258.154 120.425 257.139 121.824 256.549 122.563C256.469 122.664 256.36 122.736 256.238 122.77C256.116 122.804 255.987 122.798 255.869 122.753C255.793 122.723 255.724 122.678 255.665 122.621Z" fill="#6C63FF"/>
<path d="M254.673 120.951L253.373 118.992C253.356 118.967 253.35 118.936 253.355 118.906C253.361 118.876 253.377 118.849 253.402 118.832L253.454 118.794C253.466 118.785 253.479 118.779 253.494 118.776C253.508 118.773 253.523 118.773 253.537 118.776C253.552 118.778 253.565 118.784 253.578 118.792C253.59 118.801 253.6 118.811 253.609 118.824L254.909 120.783C254.917 120.795 254.923 120.809 254.926 120.824C254.929 120.839 254.929 120.854 254.927 120.869C254.924 120.884 254.919 120.898 254.911 120.911C254.903 120.924 254.892 120.935 254.88 120.943L254.828 120.981C254.804 120.998 254.774 121.005 254.745 120.999C254.716 120.994 254.69 120.976 254.673 120.951Z" fill="white"/>
<path d="M254.31 120.966L253.231 119.34C253.185 119.271 253.167 119.185 253.182 119.102C253.196 119.019 253.242 118.946 253.309 118.898L253.419 118.819L254.846 120.968L254.736 121.047C254.669 121.095 254.586 121.113 254.507 121.098C254.427 121.083 254.356 121.035 254.31 120.966Z" fill="#3F3D56"/>
<path d="M254.441 134.997L253.763 134.916L253.853 132.175L254.742 132.282L254.441 134.997Z" fill="#FFB8B8"/>
<path d="M254.537 135.701L252.352 135.439L252.355 135.41C252.368 135.294 252.402 135.182 252.457 135.08C252.512 134.978 252.585 134.888 252.673 134.815C252.761 134.743 252.862 134.689 252.971 134.657C253.079 134.625 253.192 134.615 253.304 134.628H253.304L254.639 134.788L254.537 135.701Z" fill="#2F2E41"/>
<path d="M262.323 134.477L261.671 134.686L260.584 132.174L261.546 131.865L262.323 134.477Z" fill="#FFB8B8"/>
<path d="M262.685 135.08L260.583 135.755L260.574 135.727C260.541 135.615 260.529 135.498 260.54 135.382C260.55 135.265 260.583 135.152 260.635 135.049C260.688 134.946 260.759 134.854 260.846 134.78C260.932 134.705 261.032 134.649 261.14 134.615H261.14L262.424 134.203L262.685 135.08Z" fill="#2F2E41"/>
<path d="M253.684 134.366C253.615 134.344 253.557 134.295 253.522 134.229C253.488 134.163 253.479 134.086 253.498 134.014L253.907 129.129C253.926 128.906 253.993 128.69 254.104 128.499L256.577 124.235L258.791 124.648L258.805 124.655C259.881 125.339 260.836 128.657 261.759 131.866C261.903 132.365 262.052 132.881 262.197 133.374C262.223 133.444 262.223 133.523 262.195 133.593C262.167 133.663 262.114 133.718 262.046 133.748L261.376 134.041C261.313 134.069 261.241 134.071 261.176 134.048C261.111 134.024 261.057 133.976 261.024 133.913L257.579 127.362C257.574 127.354 257.568 127.347 257.561 127.342C257.553 127.336 257.545 127.333 257.536 127.332C257.527 127.331 257.518 127.332 257.51 127.335C257.501 127.339 257.494 127.344 257.488 127.351L255.489 129.701L254.754 134.18L254.751 134.19C254.724 134.254 254.677 134.305 254.616 134.336C254.556 134.366 254.487 134.373 254.422 134.354L253.701 134.368L253.697 134.368L253.684 134.366Z" fill="#2F2E41"/>
<path d="M256.457 124.703L256.443 124.698L256.439 124.683C256.429 124.648 255.417 121.092 256.329 118.825L256.33 118.823C256.356 118.769 256.992 117.5 257.731 117.373L257.751 117.37L257.991 117.836C258.067 117.915 259.366 119.317 258.776 121.726C258.829 121.924 259.547 124.637 259.157 125.042C259.015 125.144 258.842 125.189 258.67 125.169C257.918 125.102 257.175 124.946 256.457 124.703Z" fill="#000080"/>
<path d="M257.579 116.929C258.532 116.929 259.304 116.126 259.304 115.136C259.304 114.147 258.532 113.344 257.579 113.344C256.626 113.344 255.854 114.147 255.854 115.136C255.854 116.126 256.626 116.929 257.579 116.929Z" fill="#2F2E41"/>
<path d="M256.893 116.92C257.648 116.92 258.26 116.284 258.26 115.5C258.26 114.716 257.648 114.08 256.893 114.08C256.138 114.08 255.526 114.716 255.526 115.5C255.526 116.284 256.138 116.92 256.893 116.92Z" fill="#FFB8B8"/>
<path d="M257.774 116.879C257.649 116.925 257.496 116.966 257.398 116.871C257.357 116.816 257.333 116.749 257.329 116.68C257.325 116.611 257.342 116.542 257.376 116.482C257.447 116.365 257.504 116.24 257.547 116.109C257.56 116.011 257.548 115.91 257.512 115.818C257.477 115.726 257.419 115.645 257.344 115.583C257.196 115.466 257.028 115.378 256.849 115.324L255.892 114.971C255.643 114.91 255.422 114.761 255.267 114.551C255.187 114.375 255.173 114.174 255.229 113.989C255.284 113.803 255.404 113.646 255.565 113.547C255.728 113.462 255.907 113.416 256.089 113.412C256.271 113.409 256.451 113.447 256.617 113.526C256.799 113.614 256.986 113.692 257.177 113.759C257.56 113.864 257.996 113.769 258.333 113.994C258.475 114.106 258.588 114.253 258.661 114.422C258.734 114.591 258.765 114.776 258.752 114.961C258.723 115.332 258.627 115.695 258.47 116.03C258.397 116.236 258.292 116.429 258.158 116.599C258.093 116.683 258.009 116.748 257.914 116.791C257.819 116.833 257.715 116.852 257.612 116.844L257.774 116.879Z" fill="#2F2E41"/>
<path d="M259.026 115.426C259.641 115.426 260.139 114.908 260.139 114.269C260.139 113.631 259.641 113.113 259.026 113.113C258.411 113.113 257.913 113.631 257.913 114.269C257.913 114.908 258.411 115.426 259.026 115.426Z" fill="#2F2E41"/>
<path d="M257.189 115.946C257.189 115.925 257.195 115.904 257.205 115.886C257.216 115.868 257.231 115.854 257.249 115.844C257.266 115.834 257.287 115.829 257.307 115.83C257.327 115.831 257.347 115.838 257.363 115.85C257.38 115.862 257.394 115.878 257.402 115.897C257.411 115.916 257.414 115.937 257.412 115.958C257.41 115.979 257.402 115.998 257.39 116.015C257.378 116.032 257.362 116.045 257.343 116.053V116.307C257.343 116.313 257.342 116.319 257.34 116.324C257.338 116.329 257.335 116.334 257.331 116.338C257.327 116.342 257.322 116.345 257.317 116.348C257.312 116.35 257.307 116.351 257.301 116.351C257.296 116.351 257.29 116.35 257.285 116.348C257.28 116.345 257.275 116.342 257.271 116.338C257.267 116.334 257.264 116.329 257.262 116.324C257.26 116.319 257.259 116.313 257.259 116.307V116.053C257.239 116.044 257.221 116.029 257.209 116.01C257.196 115.991 257.189 115.969 257.189 115.946Z" fill="white"/>
<path d="M253.719 120.062C253.8 120.053 253.882 120.064 253.959 120.092C254.037 120.12 254.107 120.165 254.165 120.225C254.224 120.284 254.269 120.356 254.298 120.436C254.327 120.515 254.338 120.6 254.332 120.685L256.155 121.511L255.289 122.096L253.69 121.222C253.554 121.202 253.43 121.13 253.341 121.021C253.252 120.911 253.205 120.772 253.208 120.629C253.212 120.486 253.266 120.349 253.36 120.245C253.454 120.14 253.581 120.075 253.719 120.062Z" fill="#FFB8B8"/>
<path d="M256.872 122.869L254.639 121.895C254.608 121.882 254.58 121.862 254.557 121.837C254.533 121.812 254.515 121.783 254.503 121.751C254.491 121.718 254.485 121.684 254.485 121.649C254.486 121.614 254.494 121.58 254.507 121.548L254.718 121.062C254.743 121.005 254.788 120.958 254.843 120.932C254.899 120.906 254.961 120.902 255.02 120.92L256.801 121.486L256.886 118.971C256.889 118.872 256.912 118.775 256.953 118.685C256.994 118.595 257.053 118.515 257.125 118.45C257.197 118.385 257.281 118.335 257.372 118.305C257.463 118.275 257.559 118.265 257.654 118.274C257.804 118.289 257.945 118.354 258.056 118.459C258.167 118.564 258.242 118.704 258.271 118.857C258.469 119.909 257.987 121.588 257.682 122.495C257.64 122.618 257.562 122.725 257.459 122.801C257.357 122.877 257.234 122.918 257.108 122.919C257.027 122.918 256.946 122.902 256.872 122.869Z" fill="#000080"/>
<path d="M27.9187 122.274H24.499V121.196C25.5796 120.414 26.5371 120.482 27.7966 121.259L27.9187 122.274Z" fill="#6C63FF"/>
<path d="M23.7074 141.426H22.9586L22.8467 138.427H23.7074V141.426Z" fill="#FFB8B8"/>
<path d="M23.8984 142.18L21.4844 142.179V142.148C21.4844 142.02 21.5087 141.893 21.5559 141.774C21.6031 141.656 21.6723 141.548 21.7596 141.458C21.8468 141.367 21.9504 141.295 22.0644 141.246C22.1784 141.197 22.3006 141.172 22.424 141.172H22.424L23.8984 141.172L23.8984 142.18Z" fill="#2F2E41"/>
<path d="M27.9242 141.426H28.6726L28.7845 138.427H27.9238L27.9242 141.426Z" fill="#FFB8B8"/>
<path d="M27.7334 141.172L29.2078 141.172H29.2078C29.3312 141.172 29.4534 141.197 29.5674 141.246C29.6814 141.295 29.785 141.367 29.8722 141.458C29.9595 141.548 30.0287 141.656 30.0759 141.774C30.1231 141.893 30.1474 142.02 30.1474 142.148V142.179L27.7334 142.18L27.7334 141.172Z" fill="#2F2E41"/>
<path d="M27.9444 141.041C27.8819 141.041 27.8214 141.019 27.7726 140.978C27.7239 140.938 27.6898 140.881 27.6761 140.818L25.8205 132.412C25.8164 132.39 25.8052 132.371 25.7888 132.357C25.7725 132.344 25.752 132.337 25.7311 132.337H25.7306C25.7096 132.337 25.6891 132.344 25.6727 132.358C25.6564 132.372 25.6453 132.391 25.6414 132.412L23.9374 140.762C23.9241 140.826 23.8902 140.883 23.8413 140.924C23.7924 140.966 23.7315 140.988 23.6686 140.988H22.8568C22.8194 140.988 22.7823 140.98 22.7479 140.965C22.7135 140.95 22.6826 140.927 22.6569 140.899C22.6312 140.87 22.6113 140.837 22.5985 140.8C22.5858 140.764 22.5803 140.725 22.5825 140.686L23.1871 130.103L23.4304 130.028L23.435 130.028L28.2139 130.072L29.2317 140.643C29.2353 140.681 29.2316 140.719 29.2208 140.755C29.21 140.791 29.1925 140.825 29.1691 140.854C29.1457 140.883 29.1169 140.907 29.0845 140.924C29.0521 140.942 29.0167 140.952 28.9803 140.955L27.9664 141.04C27.959 141.041 27.9517 141.041 27.9444 141.041Z" fill="#2F2E41"/>
<path d="M25.9706 120.341C26.7989 120.341 27.4704 119.644 27.4704 118.784C27.4704 117.923 26.7989 117.226 25.9706 117.226C25.1422 117.226 24.4707 117.923 24.4707 118.784C24.4707 119.644 25.1422 120.341 25.9706 120.341Z" fill="#FFB8B8"/>
<path d="M25.0513 131.263C24.7882 131.267 24.5261 131.229 24.2741 131.15C24.0499 131.08 23.842 130.963 23.6631 130.806C23.4841 130.649 23.338 130.456 23.2336 130.238C23.2005 130.173 23.1932 130.096 23.2132 130.025C23.3786 129.439 24.1779 126.391 23.6679 123.968C23.5959 123.631 23.5899 123.283 23.6503 122.944C23.7107 122.605 23.8362 122.282 24.0194 121.995C24.1982 121.709 24.4306 121.464 24.7026 121.274C24.9747 121.084 25.2807 120.953 25.6026 120.888V120.888C25.6872 120.871 25.7723 120.857 25.8554 120.847C26.2112 120.801 26.5723 120.838 26.9128 120.954C27.2534 121.071 27.565 121.264 27.8253 121.52C28.0933 121.781 28.3024 122.1 28.4377 122.455C28.573 122.81 28.6311 123.191 28.6079 123.572L28.2159 130.105C28.2132 130.154 28.1983 130.202 28.1726 130.243C28.1469 130.284 28.1114 130.318 28.0695 130.34C27.618 130.586 26.2619 131.263 25.0513 131.263Z" fill="#3F3D56"/>
<path d="M27.6653 117.637C27.5095 117.23 27.2241 116.891 26.8568 116.677C26.4894 116.462 26.0624 116.385 25.6469 116.458L26.1198 116.855C25.5322 116.876 24.9138 116.832 24.4942 117.26C24.6278 117.256 24.8028 117.552 24.9364 117.549C24.8114 117.558 24.6911 117.602 24.5879 117.675C24.4848 117.749 24.4026 117.851 24.35 117.969C24.2478 118.208 24.2239 118.475 24.282 118.73C24.4333 119.104 24.6093 119.467 24.8087 119.817C24.7913 119.197 25.9659 117.719 26.5395 117.873C26.2481 117.986 25.9952 118.185 25.8128 118.446C26.203 118.242 26.6443 118.167 27.0769 118.232C27.1757 118.255 27.2776 118.261 27.3783 118.249C27.44 118.236 27.4975 118.207 27.5454 118.165C27.5933 118.123 27.6299 118.068 27.6518 118.007C27.6737 117.946 27.6801 117.88 27.6704 117.815C27.6607 117.751 27.6352 117.69 27.5964 117.638L27.6653 117.637Z" fill="#2F2E41"/>
<path d="M24.9483 130.871C24.9104 130.871 24.873 130.863 24.8383 130.847L21.9926 129.557C21.9321 129.53 21.883 129.481 21.8544 129.42C21.8258 129.358 21.8194 129.288 21.8366 129.222L23.7205 121.831C23.7555 121.693 23.8166 121.564 23.9002 121.451C23.9838 121.339 24.0882 121.244 24.2072 121.174C24.3263 121.104 24.4577 121.059 24.5937 121.042C24.7297 121.025 24.8676 121.037 24.9993 121.076L25.7526 121.299L25.2223 130.602C25.2196 130.648 25.2062 130.693 25.1834 130.732C25.1606 130.772 25.129 130.805 25.0912 130.829C25.0483 130.856 24.9988 130.871 24.9483 130.871Z" fill="#1F4C6B"/>
<path d="M30.2154 129.222L30.0902 128.732L29.9088 128.019L29.8215 127.677L29.6401 126.966L28.3315 121.83C28.2966 121.693 28.2355 121.564 28.152 121.451C28.0685 121.338 27.9641 121.244 27.845 121.174C27.7258 121.103 27.5944 121.059 27.4584 121.042C27.3223 121.025 27.1844 121.036 27.0528 121.076L26.2998 121.299L26.6729 127.843L26.7114 128.526L26.7358 128.956V128.957L26.7749 129.636L26.8299 130.602C26.8344 130.675 26.8651 130.743 26.916 130.793C26.9669 130.843 27.0341 130.871 27.104 130.871C27.1419 130.871 27.1793 130.863 27.214 130.847L30.0596 129.557C30.1201 129.53 30.1692 129.481 30.1978 129.42C30.2265 129.358 30.2327 129.288 30.2154 129.222Z" fill="#1F4C6B"/>
<path d="M29.8216 127.677L26.7114 128.526L26.6729 127.843L29.6402 126.966L29.8216 127.677Z" fill="#CCCCCC"/>
<path d="M30.0899 128.732L26.7745 129.637L26.7354 128.957V128.956L29.9085 128.019L30.0899 128.732Z" fill="#CCCCCC"/>
<path d="M25.3408 127.99L25.3022 128.66L22.252 127.717L22.4307 127.015L25.3408 127.99Z" fill="#CCCCCC"/>
<path d="M25.278 129.102L22.1654 128.058L21.9863 128.762L25.2401 129.768L25.278 129.102Z" fill="#CCCCCC"/>
<path d="M22.2189 129.803C22.3117 129.778 22.3981 129.732 22.4719 129.668C22.5458 129.604 22.6053 129.525 22.6463 129.435C22.6873 129.345 22.7088 129.247 22.7093 129.147C22.7097 129.047 22.6892 128.949 22.6491 128.858L24.1123 124.087L23.0747 123.861L21.7332 128.539C21.5913 128.619 21.4827 128.751 21.4279 128.908C21.373 129.066 21.3758 129.239 21.4357 129.395C21.4956 129.551 21.6084 129.678 21.7527 129.754C21.8971 129.829 22.063 129.846 22.2189 129.803V129.803Z" fill="#FFB8B8"/>
<path d="M24.1528 121.741C24.4508 121.773 24.6184 122.121 24.5443 122.554L24.1888 124.633C24.1622 124.789 24.0387 124.912 23.936 124.886L22.7336 124.574C22.6411 124.55 22.607 124.413 22.6594 124.276L23.3813 122.396C23.4301 122.218 23.5303 122.06 23.6682 121.943C23.8062 121.826 23.9753 121.755 24.1528 121.741Z" fill="#234F68"/>
<path d="M25.9649 115.868C26.4725 115.868 26.9601 116.073 27.3246 116.44C27.6891 116.807 27.9017 117.307 27.9174 117.834H28.2854C28.3178 117.834 28.3488 117.847 28.3717 117.871C28.3946 117.895 28.4075 117.927 28.4075 117.961V118.468C28.4075 118.502 28.3946 118.534 28.3717 118.558C28.3488 118.582 28.3178 118.595 28.2854 118.595H24.1329C24.1005 118.595 24.0694 118.582 24.0465 118.558C24.0236 118.534 24.0107 118.502 24.0107 118.468V117.897C24.0107 117.631 24.0613 117.367 24.1595 117.121C24.2577 116.874 24.4016 116.651 24.5831 116.462C24.7645 116.274 24.98 116.124 25.2171 116.022C25.4541 115.92 25.7082 115.868 25.9649 115.868Z" fill="#1F4C6B"/>
<path d="M26.1986 128.414H25.3354C25.3077 128.414 25.281 128.403 25.2605 128.384C25.24 128.365 25.2271 128.338 25.2245 128.309L25.0518 126.47H26.4823L26.3095 128.309C26.3069 128.338 26.2941 128.365 26.2736 128.384C26.2531 128.403 26.2263 128.414 26.1986 128.414Z" fill="#E6E6E6"/>
<path d="M26.4798 126.701H25.0538C25.0243 126.701 24.9959 126.689 24.975 126.667C24.9542 126.646 24.9424 126.616 24.9424 126.586V126.308C24.9424 126.277 24.9542 126.248 24.975 126.226C24.9959 126.204 25.0243 126.192 25.0538 126.192H26.4798C26.5093 126.192 26.5376 126.204 26.5585 126.226C26.5794 126.248 26.5911 126.277 26.5912 126.308V126.586C26.5911 126.616 26.5794 126.646 26.5585 126.667C26.5376 126.689 26.5093 126.701 26.4798 126.701Z" fill="#CCCCCC"/>
<path d="M25.7855 127.427C25.819 127.431 25.8523 127.438 25.8848 127.448L28.1837 125.4L28.0493 124.649L29.1145 124.29L29.4768 125.596C29.5061 125.701 29.5016 125.814 29.4641 125.916C29.4266 126.019 29.358 126.106 29.2686 126.165L26.3571 128.079C26.3592 128.214 26.3216 128.346 26.2493 128.459C26.177 128.571 26.0735 128.658 25.9525 128.708C25.8315 128.758 25.6988 128.768 25.5719 128.738C25.4451 128.707 25.3302 128.638 25.2425 128.538C25.1548 128.438 25.0985 128.313 25.081 128.179C25.0635 128.045 25.0857 127.908 25.1447 127.788C25.2036 127.667 25.2965 127.568 25.411 127.504C25.5255 127.439 25.6561 127.413 25.7855 127.427H25.7855Z" fill="#FFB8B8"/>
<path d="M28.1895 121.913C28.5077 121.821 28.8257 122.072 28.9323 122.501L29.4436 124.558C29.482 124.712 29.4075 124.876 29.2912 124.893L27.929 125.097C27.8242 125.112 27.7319 125.001 27.728 124.854L27.6751 122.83C27.6549 122.64 27.694 122.448 27.7866 122.283C27.8792 122.118 28.0204 121.988 28.1895 121.913Z" fill="#1F4C6B"/>
<path d="M43.6728 127.478H42.6357C42.6025 127.478 42.5703 127.465 42.5457 127.442C42.521 127.419 42.5056 127.387 42.5025 127.352L42.2949 125.142H44.0136L43.8061 127.352C43.8029 127.387 43.7875 127.419 43.7629 127.442C43.7382 127.465 43.7061 127.478 43.6728 127.478Z" fill="#E6E6E6"/>
<path d="M44.0111 125.42H42.2979C42.2624 125.42 42.2284 125.406 42.2033 125.38C42.1782 125.354 42.1641 125.318 42.1641 125.281V124.948C42.1641 124.911 42.1782 124.876 42.2033 124.85C42.2284 124.823 42.2624 124.809 42.2979 124.809H44.0111C44.0466 124.809 44.0806 124.823 44.1057 124.85C44.1308 124.876 44.1449 124.911 44.145 124.948V125.281C44.1449 125.318 44.1308 125.354 44.1057 125.38C44.0806 125.406 44.0466 125.42 44.0111 125.42Z" fill="#CCCCCC"/>
<path d="M53.8624 140.456C53.1089 139.415 52.5132 138.261 52.0961 137.032C52.0719 136.959 52.0736 136.879 52.1009 136.807C52.1282 136.734 52.1793 136.675 52.2451 136.638L54.8236 135.203C54.8654 135.179 54.9117 135.166 54.959 135.164C55.0064 135.162 55.0536 135.171 55.097 135.191C55.1412 135.211 55.1804 135.241 55.2117 135.279C55.243 135.318 55.2655 135.363 55.2776 135.411C55.5777 136.595 56.1418 137.688 56.9243 138.603C56.9565 138.64 56.9801 138.685 56.9933 138.733C57.0065 138.781 57.009 138.832 57.0005 138.881C56.9923 138.93 56.9736 138.975 56.9458 139.015C56.918 139.055 56.8817 139.088 56.8399 139.111L54.2614 140.546C54.1954 140.583 54.1191 140.594 54.046 140.577C53.973 140.561 53.9079 140.518 53.8624 140.456Z" fill="#CCCCCC"/>
<path d="M54.0381 140.319C54.052 140.337 54.0714 140.349 54.0932 140.354C54.1149 140.359 54.1375 140.355 54.1571 140.345L56.7356 138.91C56.7481 138.903 56.759 138.893 56.7673 138.881C56.7756 138.869 56.7811 138.856 56.7835 138.841C56.7862 138.826 56.7854 138.81 56.7813 138.795C56.7772 138.78 56.7698 138.767 56.7597 138.755C55.9541 137.813 55.3733 136.687 55.0644 135.469C55.0608 135.454 55.0539 135.44 55.0443 135.428C55.0346 135.416 55.0225 135.407 55.0087 135.401C54.9958 135.395 54.9818 135.392 54.9676 135.393C54.9535 135.393 54.9397 135.397 54.9273 135.404L52.3488 136.839C52.3293 136.85 52.314 136.868 52.3057 136.889C52.2974 136.911 52.2966 136.934 52.3033 136.956C52.713 138.163 53.2981 139.297 54.0381 140.319Z" fill="white"/>
<path d="M54.9931 137.251L53.5888 137.895C53.5354 137.919 53.4748 137.92 53.4204 137.898C53.366 137.877 53.3221 137.833 53.2985 137.778L53.2638 137.696C53.2403 137.641 53.2389 137.578 53.26 137.521C53.2811 137.465 53.3229 137.419 53.3763 137.395L54.7806 136.751C54.834 136.726 54.8946 136.725 54.949 136.747C55.0034 136.769 55.0472 136.812 55.0709 136.867L55.1056 136.949C55.1291 137.005 55.1305 137.068 55.1094 137.124C55.0883 137.181 55.0465 137.226 54.9931 137.251Z" fill="#CCCCCC"/>
<path d="M55.5068 138.241L54.1024 138.885C54.049 138.91 53.9885 138.911 53.9341 138.889C53.8796 138.867 53.8358 138.824 53.8122 138.768L53.7775 138.687C53.754 138.631 53.7526 138.568 53.7737 138.512C53.7948 138.455 53.8366 138.41 53.8899 138.385L55.2943 137.741C55.3477 137.717 55.4083 137.715 55.4627 137.737C55.5171 137.759 55.5609 137.803 55.5845 137.858L55.6193 137.94C55.6428 137.995 55.6441 138.058 55.6231 138.115C55.602 138.171 55.5602 138.217 55.5068 138.241Z" fill="#CCCCCC"/>
<path d="M52.2123 137.416C52.1154 137.351 52.0333 137.265 51.9719 137.164C51.9105 137.063 51.8712 136.949 51.8567 136.83C51.8423 136.711 51.8531 136.591 51.8884 136.477C51.9237 136.363 51.9826 136.258 52.061 136.17L51.4688 127.441L53.1748 127.613L53.2216 136.162C53.3548 136.308 53.4315 136.5 53.4374 136.702C53.4432 136.903 53.3777 137.1 53.2533 137.254C53.1289 137.409 52.9542 137.511 52.7624 137.541C52.5705 137.57 52.3748 137.526 52.2123 137.416Z" fill="#A0616A"/>
<path d="M51.8555 130.374C51.8156 130.344 51.7826 130.306 51.759 130.261C51.7354 130.216 51.7218 130.166 51.7192 130.115L51.5942 127.762C51.5818 127.529 51.6529 127.299 51.7939 127.118C51.9349 126.936 52.1357 126.815 52.3576 126.777C52.5795 126.74 52.8068 126.79 52.9956 126.916C53.1845 127.043 53.3216 127.238 53.3804 127.463L53.9295 129.566C53.9523 129.654 53.9407 129.748 53.8971 129.827C53.8536 129.906 53.7817 129.963 53.6973 129.987L52.1352 130.427C52.0878 130.441 52.038 130.443 51.9896 130.434C51.9412 130.424 51.8954 130.404 51.8555 130.374Z" fill="#3F3D56"/>
<path d="M48.9474 148.148L48.0482 148.148L47.6201 144.545H48.9477L48.9474 148.148Z" fill="#A0616A"/>
<path d="M47.2048 147.881H49.1404V149.016H46.3135V148.807C46.3135 148.685 46.3365 148.565 46.3813 148.453C46.4261 148.34 46.4918 148.238 46.5745 148.152C46.6573 148.066 46.7556 147.998 46.8637 147.952C46.9719 147.905 47.0878 147.881 47.2048 147.881Z" fill="#2F2E41"/>
<path d="M52.3224 148.148L51.4232 148.148L50.9951 144.545H52.3227L52.3224 148.148Z" fill="#A0616A"/>
<path d="M50.5798 147.881H52.5154V149.016H49.6885V148.807C49.6885 148.685 49.7115 148.565 49.7563 148.453C49.8011 148.34 49.8668 148.238 49.9495 148.152C50.0323 148.066 50.1306 147.998 50.2387 147.952C50.3469 147.905 50.4628 147.881 50.5798 147.881Z" fill="#2F2E41"/>
<path d="M48.9053 146.333L47.9151 146.284C47.8308 146.28 47.7511 146.242 47.6926 146.179C47.6342 146.115 47.6012 146.031 47.6007 145.944C47.3396 141.759 46.9781 137.271 47.5315 135.538C47.5312 135.488 47.5412 135.439 47.5607 135.394C47.5803 135.349 47.6089 135.309 47.6448 135.277C47.6807 135.244 47.7228 135.22 47.7685 135.206C47.8141 135.192 47.8621 135.189 47.9091 135.196L51.8705 135.793C51.9488 135.804 52.0204 135.845 52.0724 135.907C52.1243 135.969 52.153 136.048 52.1532 136.13C52.659 138.183 52.6818 141.905 52.6627 145.772C52.663 145.817 52.6547 145.862 52.6383 145.904C52.6218 145.946 52.5976 145.984 52.5669 146.016C52.5362 146.048 52.4997 146.074 52.4595 146.091C52.4192 146.109 52.3761 146.118 52.3325 146.118H51.265C51.1863 146.118 51.11 146.089 51.0502 146.036C50.9903 145.983 50.9508 145.909 50.9389 145.828L50.2803 141.479C50.2707 141.416 50.2392 141.358 50.1917 141.316C50.1442 141.275 50.0839 141.253 50.0219 141.254C49.9599 141.255 49.9004 141.28 49.8544 141.323C49.8084 141.366 49.779 141.425 49.7716 141.489L49.2488 146.031C49.239 146.114 49.2002 146.191 49.1399 146.246C49.0795 146.302 49.0017 146.333 48.921 146.333C48.9158 146.333 48.9105 146.333 48.9053 146.333Z" fill="#2F2E41"/>
<path d="M49.6024 136.13C49.0242 135.778 48.3833 135.55 47.7183 135.46C47.6746 135.456 47.6322 135.442 47.5937 135.42C47.5552 135.398 47.5213 135.369 47.4943 135.333C47.4666 135.296 47.4463 135.255 47.4345 135.21C47.4228 135.166 47.4199 135.119 47.426 135.073L48.3751 127.754C48.4298 127.326 48.589 126.919 48.8377 126.573C49.0864 126.227 49.4162 125.953 49.7958 125.776C50.1632 125.601 50.5678 125.526 50.971 125.559C51.3742 125.591 51.7626 125.731 52.0992 125.964C52.1317 125.986 52.1637 126.009 52.195 126.032C52.5826 126.327 52.8776 126.735 53.0425 127.204C53.2075 127.673 53.2352 128.182 53.1221 128.667C52.54 131.14 52.3401 135.195 52.3059 135.982C52.3032 136.05 52.2814 136.114 52.2433 136.169C52.2052 136.223 52.1525 136.264 52.0918 136.288C51.7337 136.423 51.3558 136.493 50.9747 136.494C50.4948 136.497 50.0222 136.372 49.6024 136.13Z" fill="#3F3D56"/>
<path d="M50.3967 124.782C51.3919 124.782 52.1987 123.944 52.1987 122.911C52.1987 121.877 51.3919 121.039 50.3967 121.039C49.4015 121.039 48.5947 121.877 48.5947 122.911C48.5947 123.944 49.4015 124.782 50.3967 124.782Z" fill="#A0616A"/>
<path d="M51.6711 124.391C51.5957 124.476 51.4988 124.536 51.3916 124.565C51.2844 124.594 51.1714 124.591 51.066 124.556C50.9605 124.52 50.8669 124.455 50.7962 124.366C50.7255 124.277 50.6806 124.17 50.6668 124.056C50.6634 124.016 50.6636 123.976 50.6676 123.937C50.7332 123.721 50.7728 123.497 50.7854 123.27C50.7786 123.211 50.7574 123.154 50.7237 123.106C50.4559 122.734 49.827 123.273 49.5742 122.936C49.4192 122.729 49.6014 122.403 49.4825 122.172C49.3254 121.867 48.8604 122.017 48.5687 121.85C48.2443 121.664 48.2637 121.147 48.4773 120.833C48.6163 120.647 48.7931 120.495 48.995 120.388C49.1969 120.282 49.419 120.222 49.6455 120.215C50.099 120.204 50.5494 120.295 50.9656 120.483C51.4571 120.649 51.8908 120.961 52.2129 121.381C52.3795 121.656 52.4851 121.967 52.522 122.289C52.5589 122.612 52.5262 122.94 52.4263 123.248C52.25 123.677 51.9933 124.066 51.6711 124.391Z" fill="#2F2E41"/>
<path d="M53.0985 126.211C53.0669 126.057 52.7962 125.847 52.4088 125.675C51.7862 125.413 51.1127 125.308 50.4434 125.368C49.774 125.427 49.1277 125.65 48.557 126.018C48.5172 126.02 48.4792 126.036 48.4489 126.063C48.4185 126.09 48.3975 126.126 48.389 126.167L47.086 132.153L46.9165 132.932L46.8043 133.448L46.6348 134.225L46.5446 134.641C46.5388 134.667 46.5385 134.695 46.5438 134.721C46.5491 134.748 46.5599 134.773 46.5753 134.795C46.5907 134.817 46.6105 134.835 46.6333 134.849C46.6561 134.862 46.6813 134.871 46.7074 134.873L52.334 135.377C52.3391 135.377 52.345 135.378 52.3501 135.378C52.3965 135.378 52.4411 135.359 52.4749 135.326C52.5087 135.293 52.5291 135.248 52.5321 135.2L52.5856 134.353L52.6429 133.448L52.6678 133.056L52.7243 132.153L53.0992 126.221V126.216L53.0985 126.211Z" fill="#1F4C6B"/>
<path d="M43.8664 126.588C43.8754 126.629 43.8813 126.671 43.884 126.713L47.0356 128.601L47.8017 128.143L48.6184 129.254L46.9795 130.467L43.384 127.521C43.2373 127.577 43.0776 127.586 42.9261 127.545C42.7746 127.505 42.6385 127.418 42.5358 127.296C42.4332 127.173 42.3689 127.021 42.3515 126.86C42.3341 126.698 42.3644 126.535 42.4384 126.392C42.5124 126.249 42.6265 126.133 42.7657 126.059C42.9049 125.985 43.0625 125.956 43.2175 125.978C43.3725 125.999 43.5176 126.069 43.6335 126.178C43.7495 126.287 43.8307 126.43 43.8664 126.588V126.588Z" fill="#A0616A"/>
<path d="M47.1484 128.441C47.1431 128.39 47.1489 128.338 47.1653 128.29C47.1817 128.242 47.2084 128.198 47.2432 128.162L48.8473 126.496C49.0062 126.331 49.2184 126.233 49.4428 126.22C49.6673 126.208 49.8882 126.283 50.0629 126.43C50.2376 126.576 50.3538 126.785 50.389 127.016C50.4242 127.246 50.376 127.482 50.2536 127.678L49.1113 129.506C49.0635 129.583 48.9887 129.636 48.903 129.655C48.8174 129.674 48.7281 129.657 48.6546 129.607L47.297 128.692C47.2557 128.665 47.2209 128.628 47.1951 128.584C47.1694 128.54 47.1534 128.492 47.1484 128.441Z" fill="#1F4C6B"/>
<path d="M52.7239 132.153L52.6676 133.056L46.916 132.932L47.0856 132.153H52.7239Z" fill="#CCCCCC"/>
<path d="M52.6428 133.448L52.5855 134.353L46.6348 134.225L46.8043 133.448H52.6428Z" fill="#CCCCCC"/>
<path d="M50.4318 119.274C49.8219 119.274 49.236 119.521 48.7981 119.962C48.3603 120.403 48.1048 121.003 48.0859 121.637H47.6438C47.6049 121.637 47.5676 121.653 47.5401 121.681C47.5125 121.71 47.4971 121.749 47.4971 121.789V122.399C47.4971 122.439 47.5125 122.478 47.5401 122.506C47.5676 122.535 47.6049 122.551 47.6438 122.551H52.6328C52.6717 122.551 52.709 122.535 52.7365 122.506C52.7641 122.478 52.7795 122.439 52.7795 122.399V121.713C52.7795 121.393 52.7188 121.075 52.6008 120.78C52.4828 120.484 52.3099 120.215 52.0919 119.988C51.8739 119.762 51.6151 119.582 51.3302 119.46C51.0454 119.337 50.7401 119.274 50.4318 119.274Z" fill="#1F4C6B"/>
<path d="M63.4206 143.813H62.9174C62.9142 143.75 62.2386 142.103 62.2386 142.103L61.8303 141.077L61.5603 140.393L61.152 139.367L60.6844 138.187C60.6725 138.134 60.6435 138.086 60.6023 138.052C60.561 138.019 60.5099 138 60.4573 138C60.4046 138 60.3535 138.019 60.3123 138.052C60.271 138.086 60.2421 138.134 60.2301 138.187L59.7626 139.367L59.3542 140.393L59.0843 141.077L58.6759 142.103C58.6759 142.103 58.0003 143.75 57.9971 143.813H57.4939C57.3629 143.813 57.2373 143.867 57.1447 143.963C57.052 144.059 57 144.19 57 144.326C57 144.462 57.052 144.592 57.1447 144.689C57.2373 144.785 57.3629 144.839 57.4939 144.839H63.4206C63.5516 144.839 63.6772 144.785 63.7699 144.689C63.8625 144.592 63.9145 144.462 63.9145 144.326C63.9145 144.19 63.8625 144.059 63.7699 143.963C63.6772 143.867 63.5516 143.813 63.4206 143.813Z" fill="#F39322"/>
<path d="M63.3155 152.974H63.1205C63.1383 152.93 62.2717 150.628 62.2717 150.628L61.7515 149.311L61.4024 148.429L60.8822 147.112L60.3159 145.686C60.3 145.619 60.2628 145.559 60.2103 145.516C60.1577 145.474 60.0929 145.45 60.0261 145.45C59.9594 145.45 59.8946 145.474 59.842 145.516C59.7895 145.559 59.7523 145.619 59.7364 145.686L59.1701 147.112L58.6499 148.429L58.2974 149.311L57.7773 150.628C57.7773 150.628 56.914 152.93 56.9318 152.974H56.7302C56.5992 152.974 56.4736 153.028 56.381 153.124C56.2884 153.22 56.2363 153.351 56.2363 153.487C56.2363 153.623 56.2884 153.754 56.381 153.85C56.4736 153.946 56.5992 154 56.7302 154H63.3155C63.4465 154 63.5721 153.946 63.6647 153.85C63.7573 153.754 63.8094 153.623 63.8094 153.487C63.8094 153.351 63.7573 153.22 63.6647 153.124C63.5721 153.028 63.4465 152.974 63.3155 152.974Z" fill="#F39322"/>
<path d="M61.7842 140.662H59.5781L59.9864 139.637H61.3759L61.7842 140.662Z" fill="#F2F2F2"/>
<path d="M62.463 142.372H58.9004L59.3087 141.347H62.0547L62.463 142.372Z" fill="#F2F2F2"/>
<path d="M61.403 148.429H58.6504L59.1706 147.112H60.8828L61.403 148.429Z" fill="#F2F2F2"/>
<path d="M62.2718 150.628H57.7773L58.2976 149.311H61.7515L62.2718 150.628Z" fill="#F2F2F2"/>
<path d="M135.979 124.502C136.03 124.45 136.069 124.387 136.094 124.317C136.119 124.247 136.128 124.173 136.123 124.099C136.117 124.025 136.095 123.953 136.06 123.889C136.024 123.824 135.975 123.769 135.917 123.726L135.67 122.034L134.655 122.366L135.211 123.875C135.148 123.982 135.126 124.109 135.147 124.232C135.168 124.355 135.232 124.466 135.327 124.543C135.422 124.62 135.54 124.659 135.66 124.651C135.781 124.644 135.894 124.591 135.979 124.502Z" fill="#FFB8B8"/>
<path d="M134.934 123.706L134.308 120.67C134.247 120.379 134.259 120.077 134.343 119.793C134.426 119.508 134.579 119.25 134.786 119.044C135.587 118.243 136.617 117.232 136.973 116.97C137.306 116.723 137.71 116.599 138.12 116.619L138.128 116.62L138.667 117.148L137.494 119.153L135.713 120.312L135.912 123.288L134.934 123.706Z" fill="#000080"/>
<path d="M137.126 119.58H134.499C134.385 119.58 134.293 119.676 134.293 119.794C134.293 119.913 134.385 120.008 134.499 120.008H137.126C137.24 120.008 137.332 119.913 137.332 119.794C137.332 119.676 137.24 119.58 137.126 119.58Z" fill="#CCCCCC"/>
<path d="M137.126 124.235H134.499C134.385 124.235 134.293 124.33 134.293 124.449C134.293 124.567 134.385 124.662 134.499 124.662H137.126C137.24 124.662 137.332 124.567 137.332 124.449C137.332 124.33 137.24 124.235 137.126 124.235Z" fill="#CCCCCC"/>
<path d="M135.838 135.896C135.812 135.896 135.788 135.886 135.769 135.868C135.75 135.85 135.738 135.826 135.735 135.799L134.422 119.804C134.421 119.79 134.423 119.776 134.427 119.762C134.431 119.749 134.437 119.736 134.446 119.726C134.454 119.715 134.465 119.706 134.477 119.699C134.489 119.693 134.502 119.689 134.516 119.688C134.529 119.686 134.543 119.688 134.556 119.692C134.569 119.696 134.581 119.703 134.591 119.712C134.601 119.721 134.61 119.732 134.616 119.745C134.623 119.757 134.626 119.771 134.628 119.785L135.837 134.563L137.011 119.785C137.012 119.771 137.016 119.758 137.022 119.745C137.029 119.733 137.037 119.721 137.047 119.712C137.058 119.703 137.07 119.696 137.083 119.692C137.096 119.688 137.109 119.686 137.123 119.687C137.136 119.689 137.149 119.693 137.162 119.699C137.174 119.706 137.184 119.715 137.193 119.725C137.202 119.736 137.208 119.749 137.212 119.762C137.216 119.775 137.218 119.79 137.217 119.804L135.941 135.799C135.938 135.825 135.927 135.85 135.908 135.868C135.889 135.886 135.864 135.896 135.838 135.896L135.838 135.896Z" fill="#CCCCCC"/>
<path d="M138.786 115.978C139.532 115.978 140.137 115.35 140.137 114.575C140.137 113.799 139.532 113.171 138.786 113.171C138.04 113.171 137.435 113.799 137.435 114.575C137.435 115.35 138.04 115.978 138.786 115.978Z" fill="#FFB8B8"/>
<path d="M134.758 135.255L134.115 135.042L134.6 132.366L135.548 132.68L134.758 135.255Z" fill="#FFB8B8"/>
<path d="M134.722 135.847L132.653 135.162L132.67 135.106C132.736 134.893 132.881 134.715 133.073 134.612C133.264 134.509 133.488 134.489 133.693 134.557L134.987 134.985L134.722 135.847Z" fill="#2F2E41"/>
<path d="M139.434 135.241H138.76L138.438 132.539H139.434V135.241Z" fill="#FFB8B8"/>
<path d="M137.484 135.865H139.553V135.068H138.247C138.045 135.068 137.851 135.151 137.708 135.3C137.565 135.448 137.485 135.65 137.484 135.86V135.865Z" fill="#2F2E41"/>
<path d="M139.415 134.364L139.187 134.329C138.901 134.311 138.618 134.256 138.345 134.166C138.289 134.14 138.285 133.754 138.319 131.584C138.344 129.991 138.374 128.009 138.315 126.945C138.312 126.903 138.296 126.863 138.269 126.832C138.242 126.8 138.206 126.779 138.166 126.772C138.126 126.765 138.085 126.771 138.05 126.791C138.014 126.811 137.986 126.843 137.97 126.882C137.456 128.114 136.594 130.872 136.023 132.697C135.825 133.332 135.668 133.833 135.569 134.134C135.55 134.19 135.511 134.238 135.46 134.266C135.409 134.295 135.35 134.303 135.293 134.289C134.824 134.167 134.855 134.115 134.187 133.935C134.129 133.92 134.079 133.882 134.048 133.829C134.016 133.777 134.005 133.713 134.018 133.653C134.139 133.06 136.352 123.457 136.521 122.544C136.527 122.512 136.538 122.483 136.555 122.456C136.572 122.43 136.594 122.407 136.619 122.389C136.645 122.371 136.673 122.359 136.703 122.353C136.733 122.346 136.764 122.346 136.794 122.353C137.293 122.457 137.596 122.568 138.088 122.675C138.619 122.79 139.169 122.909 139.705 123.021C139.758 123.032 139.806 123.062 139.839 123.107C139.989 123.272 140.173 123.401 140.377 123.482C140.517 123.551 140.199 123.545 140.321 123.645C140.816 124.052 140.105 132.316 139.674 134.183C139.661 134.241 139.626 134.292 139.578 134.326C139.53 134.359 139.472 134.373 139.415 134.364V134.364Z" fill="#2F2E41"/>
<path d="M139.362 115.803C139.283 115.455 139.682 114.707 139.603 114.359C139.55 114.124 139.017 114.284 138.892 114.079C138.834 113.974 138.753 113.885 138.654 113.82C138.555 113.755 138.443 113.716 138.326 113.706C138.059 113.703 137.795 113.909 137.542 113.82C137.482 113.789 137.428 113.746 137.384 113.694C137.34 113.641 137.307 113.58 137.286 113.514C137.265 113.448 137.257 113.378 137.262 113.309C137.268 113.24 137.286 113.172 137.317 113.11C137.452 112.864 137.663 112.672 137.915 112.565C138.313 112.312 138.789 112.229 139.244 112.333C139.505 112.437 139.744 112.593 139.948 112.792C140.152 112.949 140.332 113.138 140.48 113.353C140.606 113.577 140.674 113.831 140.678 114.09C140.682 114.349 140.622 114.605 140.503 114.833C140.257 115.288 139.865 115.639 139.395 115.824" fill="#2F2E41"/>
<path d="M136.044 123.895C136.19 123.642 136.411 122.456 136.684 120.466C136.87 119.107 137.032 117.726 137.113 117.021C137.119 116.964 137.139 116.91 137.171 116.863C137.203 116.816 137.246 116.778 137.296 116.754C137.348 116.727 137.4 116.703 137.452 116.679C138.07 116.385 138.757 116.281 139.431 116.379C140.105 116.478 140.738 116.774 141.255 117.234L141.261 117.24L141.262 117.249C141.265 117.264 141.544 118.827 140.973 119.882C140.409 120.924 140.402 123.682 140.402 123.71V123.745L140.369 123.735C139.492 123.475 136.104 123.93 136.069 123.935L136.017 123.942L136.044 123.895Z" fill="#000080"/>
<path d="M141.143 120.276H138.517C138.403 120.276 138.311 120.372 138.311 120.49C138.311 120.608 138.403 120.704 138.517 120.704H141.143C141.257 120.704 141.349 120.608 141.349 120.49C141.349 120.372 141.257 120.276 141.143 120.276Z" fill="#CCCCCC"/>
<path d="M141.143 124.93H138.517C138.403 124.93 138.311 125.026 138.311 125.144C138.311 125.262 138.403 125.358 138.517 125.358H141.143C141.257 125.358 141.349 125.262 141.349 125.144C141.349 125.026 141.257 124.93 141.143 124.93Z" fill="#CCCCCC"/>
<path d="M139.856 135.95C139.83 135.95 139.805 135.94 139.786 135.922C139.767 135.904 139.755 135.879 139.753 135.852L138.44 120.499C138.437 120.471 138.446 120.443 138.463 120.421C138.481 120.399 138.506 120.386 138.533 120.383C138.561 120.381 138.588 120.39 138.609 120.408C138.63 120.426 138.643 120.452 138.645 120.48L139.854 134.617L141.029 120.481C141.03 120.467 141.034 120.453 141.04 120.44C141.046 120.428 141.055 120.417 141.065 120.408C141.075 120.399 141.087 120.392 141.1 120.387C141.113 120.383 141.127 120.382 141.14 120.383C141.154 120.384 141.167 120.388 141.179 120.395C141.191 120.401 141.202 120.41 141.21 120.421C141.219 120.432 141.226 120.444 141.23 120.457C141.234 120.471 141.235 120.485 141.234 120.499L139.958 135.852C139.956 135.879 139.944 135.904 139.925 135.922C139.906 135.94 139.882 135.95 139.856 135.95L139.856 135.95Z" fill="#CCCCCC"/>
<path d="M139.008 124.998C138.992 124.925 138.992 124.85 139.008 124.778C139.024 124.705 139.054 124.637 139.098 124.578C139.142 124.519 139.197 124.471 139.261 124.437C139.324 124.403 139.394 124.384 139.466 124.381L140.558 123.1L141.236 123.952L139.98 124.905C139.977 125.03 139.93 125.149 139.847 125.24C139.765 125.332 139.654 125.388 139.534 125.4C139.414 125.411 139.294 125.377 139.197 125.303C139.1 125.229 139.033 125.12 139.008 124.998H139.008Z" fill="#FFB8B8"/>
<path d="M139.644 124.106L141.367 121.72L140.478 119.742L140.543 117.397L141.271 117.257L141.279 117.261C141.633 117.476 141.907 117.808 142.058 118.204C142.22 118.624 142.556 120.054 142.809 121.179C142.875 121.469 142.868 121.771 142.789 122.057C142.711 122.344 142.563 122.604 142.359 122.814L140.245 125.009L139.644 124.106Z" fill="#000080"/>
<path d="M132.42 135.286L134.777 135.876C134.823 135.888 134.872 135.884 134.915 135.863C134.957 135.842 134.992 135.807 135.012 135.762L137.037 130.17C137.046 130.148 137.051 130.125 137.051 130.102C137.051 130.078 137.046 130.055 137.037 130.033C137.027 130.009 137.012 129.988 136.994 129.97C136.975 129.952 136.953 129.938 136.929 129.929L135.157 129.226C135.129 129.214 135.099 129.21 135.069 129.211C135.039 129.213 135.01 129.221 134.983 129.235C134.96 129.247 134.94 129.264 134.923 129.285C134.907 129.306 134.895 129.33 134.888 129.356L134.888 129.356L133.637 134.285L133.619 134.286C133.23 134.31 132.861 134.47 132.572 134.74C132.512 134.815 132.467 134.902 132.441 134.997C132.415 135.091 132.408 135.189 132.42 135.286Z" fill="#CCCCCC"/>
<path d="M134.127 132.152L134.116 132.258L136.265 132.494L136.276 132.388L134.127 132.152Z" fill="#B3B3B3"/>
<path d="M133.94 133.033L133.897 133.13L135.627 133.939L135.669 133.841L133.94 133.033Z" fill="#B3B3B3"/>
<path d="M136.503 131.638L134.464 130.937L134.506 130.84L136.545 131.541L136.503 131.638Z" fill="#B3B3B3"/>
<path d="M136.709 131.157L134.67 130.135L134.712 130.037L136.751 131.059L136.709 131.157Z" fill="#B3B3B3"/>
<path d="M133.76 133.87L133.693 133.952L135.163 135.256L135.23 135.175L133.76 133.87Z" fill="#B3B3B3"/>
<path d="M133.343 134.303L133.249 134.347L133.84 135.7L133.934 135.655L133.343 134.303Z" fill="#B3B3B3"/>
<path d="M190.799 124.95C190.711 124.929 190.63 124.888 190.559 124.831C190.489 124.773 190.431 124.701 190.39 124.617C190.35 124.534 190.327 124.443 190.324 124.35C190.322 124.257 190.338 124.164 190.374 124.079L188.112 118.772L189.406 118.434L191.222 123.756C191.357 123.827 191.461 123.947 191.516 124.093C191.572 124.239 191.573 124.401 191.521 124.548C191.469 124.696 191.367 124.818 191.233 124.892C191.1 124.966 190.946 124.987 190.799 124.95Z" fill="#A0616A"/>
<path d="M188.532 120.435C188.495 120.418 188.463 120.393 188.437 120.362C188.411 120.332 188.392 120.295 188.381 120.256L187.985 118.882C187.899 118.692 187.889 118.474 187.957 118.276C188.025 118.078 188.167 117.916 188.35 117.826C188.533 117.736 188.743 117.726 188.934 117.797C189.125 117.868 189.28 118.015 189.367 118.205L190.132 119.405C190.153 119.439 190.168 119.478 190.174 119.518C190.18 119.559 190.178 119.6 190.167 119.64C190.156 119.679 190.138 119.716 190.112 119.747C190.086 119.778 190.055 119.804 190.019 119.821L188.761 120.433C188.725 120.45 188.686 120.459 188.646 120.46C188.607 120.46 188.568 120.452 188.532 120.435Z" fill="#6C63FF"/>
<path d="M193.135 119.75L191.748 120.77C191.73 120.784 191.709 120.791 191.687 120.791C191.665 120.791 191.644 120.784 191.626 120.77L191.251 120.478C191.239 120.469 191.228 120.456 191.221 120.442C191.214 120.428 191.21 120.412 191.209 120.396C191.208 120.38 191.211 120.364 191.217 120.35C191.223 120.335 191.233 120.322 191.244 120.311L192.312 119.323C192.326 119.31 192.343 119.301 192.361 119.298C192.379 119.294 192.398 119.295 192.416 119.302L193.11 119.56C193.128 119.567 193.144 119.578 193.156 119.594C193.168 119.609 193.175 119.628 193.178 119.647C193.181 119.667 193.178 119.687 193.17 119.705C193.163 119.723 193.151 119.739 193.135 119.75Z" fill="#3F3D56"/>
<path d="M193.022 119.654C193.026 119.644 193.025 119.634 193.021 119.624C193.017 119.615 193.01 119.608 193.001 119.604L192.375 119.372C192.369 119.369 192.362 119.369 192.356 119.37C192.349 119.371 192.343 119.374 192.338 119.379L191.375 120.27L191.37 120.276C191.367 120.28 191.365 120.285 191.364 120.29C191.363 120.294 191.363 120.299 191.364 120.304C191.365 120.309 191.366 120.314 191.369 120.318C191.371 120.322 191.374 120.326 191.378 120.328L191.715 120.591C191.722 120.596 191.729 120.599 191.737 120.599C191.745 120.599 191.753 120.596 191.759 120.591L193.009 119.672C193.015 119.667 193.02 119.661 193.022 119.654Z" fill="white"/>
<path d="M188.079 134.958H188.779L189.112 132.153H188.079V134.958Z" fill="#A0616A"/>
<path d="M187.901 134.72L189.28 134.72H189.28C189.396 134.72 189.51 134.744 189.616 134.79C189.723 134.836 189.82 134.903 189.901 134.988C189.983 135.072 190.048 135.173 190.092 135.284C190.136 135.394 190.159 135.513 190.159 135.633V135.663L187.901 135.663L187.901 134.72Z" fill="#2F2E41"/>
<path d="M185.738 134.958H186.439L186.772 132.153H185.738V134.958Z" fill="#A0616A"/>
<path d="M185.56 134.72L186.938 134.72H186.938C187.054 134.72 187.168 134.744 187.275 134.79C187.381 134.836 187.478 134.903 187.56 134.988C187.641 135.072 187.706 135.173 187.75 135.284C187.794 135.394 187.817 135.513 187.817 135.633V135.663L185.56 135.663L185.56 134.72Z" fill="#2F2E41"/>
<path d="M185.59 134.101C185.542 134.044 185.515 133.971 185.514 133.895C185.347 132.112 185.801 122.738 186.851 121.937L186.857 121.931L189.928 121.38L189.985 121.439C189.99 121.522 190.548 129.739 189.006 133.932C188.987 133.982 188.954 134.025 188.912 134.055C188.869 134.086 188.818 134.102 188.767 134.102H188.154C188.118 134.102 188.083 134.094 188.051 134.08C188.018 134.065 187.989 134.043 187.965 134.016C187.941 133.989 187.922 133.957 187.911 133.922C187.899 133.888 187.895 133.851 187.897 133.814L188.394 125.962C188.396 125.939 188.389 125.917 188.375 125.899C188.362 125.882 188.342 125.87 188.321 125.867C188.299 125.863 188.278 125.869 188.26 125.882C188.242 125.894 188.229 125.914 188.225 125.936L186.827 133.906C186.815 133.962 186.786 134.012 186.744 134.05C186.702 134.088 186.65 134.11 186.595 134.115L185.79 134.177C185.783 134.177 185.777 134.178 185.771 134.178C185.703 134.178 185.638 134.15 185.59 134.101Z" fill="#2F2E41"/>
<path d="M189.631 116.573C190.406 116.573 191.034 115.921 191.034 115.116C191.034 114.312 190.406 113.66 189.631 113.66C188.856 113.66 188.229 114.312 188.229 115.116C188.229 115.921 188.856 116.573 189.631 116.573Z" fill="#A0616A"/>
<path d="M186.252 123.213C186.193 123.15 186.159 123.066 186.157 122.979L186.73 120.194C186.273 118.177 186.881 117.799 187.568 117.417L187.563 117.414L187.85 116.609C187.859 116.573 187.876 116.54 187.899 116.511C187.922 116.483 187.95 116.46 187.983 116.444C188.015 116.429 188.05 116.421 188.086 116.421C188.122 116.421 188.157 116.43 188.189 116.446L189.651 117.252C189.717 117.291 189.765 117.354 189.787 117.43C189.811 117.51 189.81 117.596 189.782 117.675L189.674 117.978C189.953 118.365 190.385 119.897 189.928 120.49L190.273 122.467C190.28 122.539 190.263 122.613 190.224 122.673C190.184 122.734 190.126 122.779 190.058 122.799L186.456 123.279C186.442 123.282 186.428 123.284 186.414 123.284C186.353 123.283 186.295 123.257 186.252 123.213Z" fill="#1F4C6B"/>
<path d="M191.496 120.019C191.473 120.041 191.452 120.066 191.433 120.092L188.607 119.889L188.304 119.247L187.312 119.596L187.743 120.786C187.778 120.882 187.841 120.964 187.925 121.019C188.008 121.074 188.106 121.1 188.205 121.092L191.418 120.839C191.489 120.942 191.588 121.019 191.703 121.062C191.818 121.104 191.942 121.109 192.06 121.076C192.177 121.044 192.282 120.974 192.361 120.878C192.44 120.782 192.488 120.663 192.501 120.537C192.513 120.411 192.488 120.284 192.429 120.174C192.37 120.063 192.28 119.974 192.171 119.918C192.062 119.861 191.939 119.841 191.818 119.859C191.698 119.877 191.586 119.933 191.496 120.019V120.019Z" fill="#A0616A"/>
<path d="M188.502 119.899L187.271 120.325C187.236 120.337 187.199 120.341 187.162 120.337C187.125 120.333 187.09 120.32 187.058 120.301C187.026 120.281 186.999 120.255 186.978 120.223C186.957 120.192 186.943 120.156 186.936 120.118L186.712 118.794C186.653 118.608 186.668 118.405 186.754 118.23C186.839 118.054 186.987 117.921 187.167 117.86C187.346 117.799 187.542 117.814 187.711 117.902C187.88 117.99 188.008 118.144 188.068 118.33L188.65 119.525C188.667 119.56 188.676 119.597 188.678 119.635C188.679 119.674 188.673 119.712 188.659 119.747C188.645 119.783 188.623 119.815 188.596 119.841C188.569 119.867 188.537 119.887 188.502 119.899Z" fill="#1F4C6B"/>
<path d="M188.843 113.966C189.474 113.966 189.985 113.435 189.985 112.78C189.985 112.125 189.474 111.594 188.843 111.594C188.212 111.594 187.701 112.125 187.701 112.78C187.701 113.435 188.212 113.966 188.843 113.966Z" fill="#2F2E41"/>
<path d="M190.958 115.296C191.069 115.319 191.183 115.309 191.289 115.268C191.342 115.236 191.388 115.192 191.422 115.138C191.456 115.085 191.478 115.024 191.485 114.96C191.698 113.491 190.496 113.612 190.353 113.549C190.264 113.494 190.179 113.43 190.102 113.358C189.902 113.243 189.673 113.191 189.445 113.208C189.175 113.182 188.903 113.217 188.647 113.309C188.424 113.418 188.239 113.595 188.116 113.817C187.995 114.038 187.907 114.277 187.853 114.525C187.769 114.806 187.754 115.104 187.809 115.393C187.867 115.608 187.989 115.799 188.157 115.939C188.325 116.079 188.531 116.161 188.746 116.173C188.712 116 188.733 115.821 188.807 115.662C188.88 115.503 189.003 115.373 189.154 115.294C189.395 115.171 189.669 115.137 189.932 115.198C190.102 115.233 190.274 115.256 190.447 115.264C190.617 115.271 190.822 115.281 190.958 115.296Z" fill="#2F2E41"/>
<path d="M300.723 135.247C300.724 133.691 301.32 132.199 302.38 131.099C303.439 129.999 304.876 129.381 306.375 129.381C307.873 129.381 309.31 129.999 310.37 131.099C311.429 132.199 312.025 133.691 312.026 135.247" fill="#F2F2F2"/>
<path d="M306.375 135.247C306.334 135.247 306.295 135.231 306.267 135.201C306.238 135.171 306.222 135.131 306.222 135.089V131.995C306.222 131.953 306.238 131.912 306.267 131.883C306.295 131.853 306.334 131.836 306.375 131.836C306.415 131.836 306.454 131.853 306.483 131.883C306.512 131.912 306.528 131.953 306.528 131.995V135.089C306.528 135.131 306.512 135.171 306.483 135.201C306.454 135.231 306.415 135.247 306.375 135.247Z" fill="#CCCCCC"/>
<path d="M306.374 134.184C306.338 134.184 306.303 134.171 306.275 134.146L304.442 132.512C304.427 132.498 304.414 132.482 304.405 132.463C304.395 132.444 304.39 132.424 304.388 132.403C304.387 132.382 304.389 132.361 304.395 132.341C304.401 132.321 304.411 132.303 304.425 132.287C304.438 132.271 304.454 132.258 304.472 132.249C304.49 132.239 304.509 132.234 304.53 132.232C304.55 132.231 304.57 132.233 304.589 132.24C304.608 132.247 304.626 132.257 304.641 132.271L306.474 133.905C306.498 133.926 306.515 133.954 306.522 133.986C306.53 134.017 306.529 134.05 306.518 134.081C306.507 134.111 306.487 134.137 306.462 134.156C306.436 134.174 306.406 134.184 306.374 134.184L306.374 134.184Z" fill="#CCCCCC"/>
<path d="M318.137 135.247C318.138 133.691 318.734 132.199 319.794 131.099C320.853 129.999 322.29 129.381 323.789 129.381C325.287 129.381 326.724 129.999 327.784 131.099C328.843 132.199 329.439 133.691 329.441 135.247" fill="#F2F2F2"/>
<path d="M323.789 135.247C323.748 135.247 323.709 135.231 323.681 135.201C323.652 135.171 323.636 135.131 323.636 135.089V131.995C323.636 131.953 323.652 131.912 323.681 131.883C323.709 131.853 323.748 131.836 323.789 131.836C323.83 131.836 323.868 131.853 323.897 131.883C323.926 131.912 323.942 131.953 323.942 131.995V135.089C323.942 135.131 323.926 135.171 323.897 135.201C323.868 135.231 323.83 135.247 323.789 135.247Z" fill="#CCCCCC"/>
<path d="M323.788 134.184C323.751 134.184 323.716 134.171 323.688 134.146L321.855 132.512C321.84 132.498 321.827 132.482 321.818 132.463C321.809 132.444 321.803 132.424 321.801 132.403C321.8 132.382 321.802 132.361 321.808 132.341C321.815 132.321 321.824 132.303 321.838 132.287C321.851 132.271 321.867 132.258 321.885 132.249C321.903 132.239 321.923 132.234 321.943 132.232C321.963 132.231 321.983 132.233 322.002 132.24C322.021 132.247 322.039 132.257 322.054 132.271L323.887 133.905C323.911 133.926 323.928 133.954 323.936 133.986C323.943 134.017 323.942 134.05 323.931 134.081C323.92 134.111 323.901 134.137 323.875 134.156C323.849 134.174 323.819 134.184 323.788 134.184V134.184Z" fill="#CCCCCC"/>
</g>
<defs>
<clipPath id="clip0_697_566">
<rect width="345" height="154" fill="white"/>
</clipPath>
</defs>
</svg>
