<svg width="38" height="29" viewBox="0 0 38 29" fill="none" xmlns="http://www.w3.org/2000/svg">
<path d="M10.0546 28.5997C11.3598 28.5997 12.4179 27.4749 12.4179 26.0873C12.4179 24.6998 11.3598 23.575 10.0546 23.575C8.74946 23.575 7.69141 24.6998 7.69141 26.0873C7.69141 27.4749 8.74946 28.5997 10.0546 28.5997Z" fill="#000080"/>
<path d="M15.6289 28.5997C16.934 28.5997 17.9921 27.4749 17.9921 26.0873C17.9921 24.6998 16.934 23.575 15.6289 23.575C14.3237 23.575 13.2656 24.6998 13.2656 26.0873C13.2656 27.4749 14.3237 28.5997 15.6289 28.5997Z" fill="#000080"/>
<path d="M32.6249 28.5997C33.9301 28.5997 34.9882 27.4749 34.9882 26.0873C34.9882 24.6998 33.9301 23.575 32.6249 23.575C31.3198 23.575 30.2617 24.6998 30.2617 26.0873C30.2617 27.4749 31.3198 28.5997 32.6249 28.5997Z" fill="#000080"/>
<path fill-rule="evenodd" clip-rule="evenodd" d="M5.42996 21.5845H28.2666C28.4127 21.4122 28.5179 21.1702 28.5179 21.0629V12.293C28.5179 11.6675 29.0279 10.9621 29.5884 11.155L34.9387 13.0041C35.4981 13.197 35.7257 13.5931 36.0091 14.1422L37.7485 17.5083C37.7485 19.7525 37.7936 21.9886 37.7936 24.2293C37.7936 24.7304 37.4082 25.1413 36.9357 25.1413H35.3649C34.9891 23.9154 33.9057 23.0296 32.628 23.0296C31.3503 23.0296 30.267 23.9154 29.8912 25.1413H18.3692C17.9934 23.9154 16.91 23.0296 15.6323 23.0296C14.3546 23.0296 13.2712 23.9154 12.8954 25.1413H12.7956C12.4198 23.9154 11.3364 23.0296 10.0587 23.0296C8.781 23.0296 7.69763 23.9154 7.32183 25.1413H5.43211C4.96075 25.1413 4.57422 24.7315 4.57422 24.2293V22.4977C4.57422 21.9966 4.95968 21.5857 5.43211 21.5857L5.42996 21.5845ZM30.2015 12.8146L34.4716 14.4709C34.6176 14.528 34.6799 14.6273 34.755 14.7723L36.2733 17.6978C36.3484 17.8428 36.1455 17.9992 35.9898 17.9992H30.2025C30.0468 17.9992 29.9191 17.8633 29.9191 17.6978V13.116C29.9191 12.9505 30.0565 12.7576 30.2025 12.8146H30.2015Z" fill="#000080"/>
<path fill-rule="evenodd" clip-rule="evenodd" d="M16.7563 14.5105H18.5065C18.7524 14.5105 18.9542 14.7251 18.9542 14.9865V16.8904C18.9542 17.1518 18.7524 17.3664 18.5065 17.3664H16.7563C16.5105 17.3664 16.3086 17.1518 16.3086 16.8904V14.9865C16.3086 14.7251 16.5105 14.5105 16.7563 14.5105Z" fill="white"/>
<path fill-rule="evenodd" clip-rule="evenodd" d="M13.3774 14.5105H15.1276C15.3734 14.5105 15.5753 14.7251 15.5753 14.9865V16.8904C15.5753 17.1518 15.3734 17.3664 15.1276 17.3664H13.3774C13.1315 17.3664 12.9297 17.1518 12.9297 16.8904V14.9865C12.9297 14.7251 13.1315 14.5105 13.3774 14.5105Z" fill="white"/>
<path fill-rule="evenodd" clip-rule="evenodd" d="M16.7563 11.0049H18.5065C18.7524 11.0049 18.9542 11.2195 18.9542 11.4809V13.3848C18.9542 13.6462 18.7524 13.8608 18.5065 13.8608H16.7563C16.5105 13.8608 16.3086 13.6462 16.3086 13.3848V11.4809C16.3086 11.2195 16.5105 11.0049 16.7563 11.0049Z" fill="white"/>
<path fill-rule="evenodd" clip-rule="evenodd" d="M13.3774 11.0049H15.1276C15.3734 11.0049 15.5753 11.2195 15.5753 11.4809V13.3848C15.5753 13.6462 15.3734 13.8608 15.1276 13.8608H13.3774C13.1315 13.8608 12.9297 13.6462 12.9297 13.3848V11.4809C12.9297 11.2195 13.1315 11.0049 13.3774 11.0049Z" fill="white"/>
<path d="M10.057 26.9413C10.5006 26.9413 10.8602 26.559 10.8602 26.0875C10.8602 25.6159 10.5006 25.2336 10.057 25.2336C9.61348 25.2336 9.25391 25.6159 9.25391 26.0875C9.25391 26.559 9.61348 26.9413 10.057 26.9413Z" fill="white"/>
<path d="M15.6313 26.9413C16.0748 26.9413 16.4344 26.559 16.4344 26.0875C16.4344 25.6159 16.0748 25.2336 15.6313 25.2336C15.1877 25.2336 14.8281 25.6159 14.8281 26.0875C14.8281 26.559 15.1877 26.9413 15.6313 26.9413Z" fill="white"/>
<path d="M32.6274 26.9413C33.0709 26.9413 33.4305 26.559 33.4305 26.0875C33.4305 25.6159 33.0709 25.2336 32.6274 25.2336C32.1838 25.2336 31.8242 25.6159 31.8242 26.0875C31.8242 26.559 32.1838 26.9413 32.6274 26.9413Z" fill="white"/>
<path fill-rule="evenodd" clip-rule="evenodd" d="M11.4684 13.6296L11.4036 13.8135C11.9055 13.9643 12.0727 13.5272 12.5562 14.1568C12.2433 14.2736 11.6346 14.2909 11.1845 14.4402L11.1209 14.6219C11.4338 14.6876 11.6648 14.5743 11.8817 14.6385C12.0684 14.6941 12.253 14.9068 12.2821 14.9905C11.8698 15.0395 11.2266 15.1469 10.9007 15.2501L10.8359 15.4347C11.1673 15.5284 11.7015 15.2133 12.0511 15.8465C12.1548 16.0332 12.022 16.1775 12.158 16.3808C12.3404 16.6534 12.8109 16.9988 13.3419 16.9491C13.8286 16.9037 14.3348 16.652 14.5647 17.2174C14.6543 17.4395 14.5258 17.5 14.6802 17.7467C15.2414 18.6416 16.3929 18.1548 16.6605 18.2046C17.1635 18.2984 17.089 18.9467 17.1926 19.1183C17.28 19.2625 17.4268 19.388 17.6502 19.5048C18.5967 20.0003 19.3748 18.9726 19.6381 20.1813C19.9446 20.239 21.0271 19.9974 21.3606 19.9368L26.2031 19.127V11.5246C26.0606 11.4345 25.9041 11.3638 25.7833 11.2895L25.4444 11.2405L21.9488 11.8455C20.7303 12.0496 11.8493 13.4847 11.4673 13.6304L11.4684 13.6296Z" fill="#000080"/>
<path fill-rule="evenodd" clip-rule="evenodd" d="M14.7188 14.9927C15.1137 15.2249 15.4008 15.4066 15.3997 15.8206C15.3987 16.1018 15.7818 16.5121 16.3246 16.5302C16.7844 16.2316 16.0235 16.3744 17.7935 16.0809L26.2039 14.6739V13.0564L16.6797 14.6494C16.1228 14.7417 15.2184 14.8614 14.7188 14.9927Z" fill="white"/>
<path fill-rule="evenodd" clip-rule="evenodd" d="M17.2539 16.3445L17.3597 16.4231C17.4233 16.4642 17.4633 16.483 17.5086 16.5126C17.7914 16.6943 17.9122 16.8666 17.909 17.1623C17.9047 17.4753 18.2641 17.8517 18.8544 17.8892C19.2267 17.5474 18.9148 17.6621 20.3124 17.4342L25.2175 16.6092C25.5446 16.5544 25.8737 16.4974 26.205 16.4404V14.833L19.2397 15.9984C18.6213 16.1015 17.8399 16.2126 17.2539 16.3445Z" fill="white"/>
<path fill-rule="evenodd" clip-rule="evenodd" d="M12.2188 13.6423C12.6515 13.8882 12.8943 14.0599 12.8922 14.4875C12.8911 14.7918 13.3196 15.143 13.8646 15.1841C14.0815 14.8373 14.3707 14.874 15.2762 14.724C15.8342 14.6317 16.3652 14.543 16.9156 14.4522L26.2056 12.8707V11.7717C26.1538 11.719 26.0825 11.6599 25.9843 11.5907C25.5537 11.2899 25.0681 11.4846 24.0374 11.6577L12.2188 13.643V13.6423Z" fill="white"/>
<path fill-rule="evenodd" clip-rule="evenodd" d="M19.7285 17.6981C19.9077 17.799 20.0663 17.8978 20.1807 17.9973C20.2724 18.0767 20.2724 18.0839 20.3296 18.1791L20.4138 18.3262C20.4527 18.3832 20.4354 18.3637 20.4689 18.3969L26.2039 17.4341V16.5933C23.0892 17.1125 19.9789 17.6346 19.7285 17.6973V17.6981Z" fill="white"/>
<path fill-rule="evenodd" clip-rule="evenodd" d="M19.9547 19.3835L19.8791 19.1931L19.1582 19.3157C19.3687 19.4376 19.4625 19.4852 19.6028 19.6172C19.7939 19.7975 19.796 19.9114 19.9007 20.0189L26.2034 18.9602V18.3516C25.1835 18.5174 24.1755 18.6855 23.2204 18.865C22.7412 18.9552 20.2817 19.3929 19.9547 19.3842V19.3835Z" fill="white"/>
<path fill-rule="evenodd" clip-rule="evenodd" d="M20.2214 18.5775L20.1383 18.3871L19.4648 18.4989C19.8285 18.7585 20.0422 18.845 20.1415 19.2056L26.2068 18.1924V17.6133C23.4418 18.0799 20.4092 18.5811 20.2214 18.5775Z" fill="white"/>
<path fill-rule="evenodd" clip-rule="evenodd" d="M14.4297 15.7855C14.7686 16.0386 15.115 16.1367 15.115 16.6105C15.115 16.9523 15.455 17.297 16.0788 17.3482C16.4284 16.8679 16.9389 17.0799 17.4882 16.8859C17.5961 16.8484 17.4979 16.896 17.5951 16.8362C17.4105 16.6782 17.3695 16.5383 16.9465 16.604C16.2752 16.7093 15.8661 16.7778 15.3643 16.2657C15.1409 16.0379 15.1873 16.0025 15.1614 15.6802L14.4297 15.7855Z" fill="white"/>
<path fill-rule="evenodd" clip-rule="evenodd" d="M14.166 16.5977C14.5718 16.9034 14.8427 16.9604 14.8341 17.4335C14.8287 17.7349 15.1945 18.1272 15.7708 18.1518C16.1022 17.8893 15.8172 17.9361 16.44 17.8352C16.7238 17.789 17.0896 17.7652 17.2936 17.6693C17.1242 17.4869 17.1037 17.3441 16.6461 17.4147C16.0547 17.507 15.5485 17.5972 15.0596 17.0686C14.8449 16.8364 14.9646 16.6683 14.8502 16.4895L14.1671 16.5984L14.166 16.5977Z" fill="white"/>
<path fill-rule="evenodd" clip-rule="evenodd" d="M16.9405 17.1813C17.3701 17.3342 17.6237 17.6335 17.6226 17.9847C17.6215 18.2558 18.0079 18.6813 18.5162 18.6892C18.8454 18.6409 18.3824 18.5097 19.2123 18.3799C19.4702 18.3395 19.8264 18.2948 20.0714 18.2227C20.0088 18.0222 19.8318 17.9097 19.5048 17.9515C18.9652 18.0207 18.404 18.1981 17.8546 17.6162C17.8104 17.57 17.7122 17.4258 17.6874 17.3508C17.6625 17.2765 17.6766 17.2967 17.6701 17.2109C17.6679 17.182 17.669 17.1525 17.6636 17.1229C17.6442 17.0306 17.6658 17.0854 17.6323 17.0364C17.4132 17.0602 17.1154 17.0933 16.9395 17.1813H16.9405Z" fill="white"/>
<path fill-rule="evenodd" clip-rule="evenodd" d="M16.6758 17.9493C16.7308 18.0099 16.6769 17.9645 16.7837 18.0402C16.842 18.082 16.8884 18.1022 16.9337 18.1311C17.2089 18.307 17.3481 18.4887 17.3438 18.7765C17.3395 19.1061 17.6913 19.4659 18.3 19.5121C18.5321 19.2503 18.4651 19.2589 18.9486 19.1803C19.226 19.1356 19.5228 19.0635 19.8034 19.0541C19.4235 18.4065 18.9983 18.9921 18.2558 18.8198C17.9244 18.7433 17.7377 18.5811 17.5985 18.4274C17.3676 18.1714 17.4118 18.1967 17.3881 17.8469L16.6758 17.9486V17.9493Z" fill="white"/>
<path fill-rule="evenodd" clip-rule="evenodd" d="M11.6543 15.2577C12.0547 15.5137 12.3267 15.6529 12.3256 16.1007C12.3245 16.3632 12.7271 16.7829 13.2462 16.7938C13.598 16.6077 13.2095 16.5911 13.9218 16.4793C14.2131 16.4332 14.5175 16.382 14.7841 16.3337C14.4366 15.6111 13.4458 16.6402 12.5576 15.7236C12.304 15.4625 12.4572 15.3486 12.345 15.1423L11.6554 15.2577H11.6543Z" fill="white"/>
<path fill-rule="evenodd" clip-rule="evenodd" d="M11.9581 14.44C11.9678 14.4552 11.984 14.4566 11.9851 14.4681C11.9862 14.4797 12.0045 14.4847 12.0099 14.4891C12.175 14.6059 12.2948 14.6463 12.433 14.7999C12.5474 14.9268 12.6078 15.0674 12.6089 15.2802C12.611 15.5715 12.978 15.9652 13.5554 15.9883C13.8349 15.7172 13.687 15.7496 14.2159 15.6638C14.4986 15.6177 14.7781 15.5614 15.0609 15.5282C14.6583 14.7508 13.7852 15.8874 12.8711 14.9189C12.6402 14.6744 12.6639 14.683 12.6575 14.3354L11.957 14.4407L11.9581 14.44Z" fill="white"/>
<path fill-rule="evenodd" clip-rule="evenodd" d="M9.60045 13.0426L7.85102 12.2335L9.17307 11.9869L9.60045 13.0426ZM6.91209 11.7986L5.56629 11.1763L6.58292 10.9866L6.91209 11.7994V11.7986ZM5.13783 10.978L4.42554 10.6484L4.16329 10.0008L8.07334 9.27102L8.50935 10.3484L5.13676 10.978H5.13783ZM3.90104 10.4054L3.35279 10.1515L3.76721 10.0744L3.90104 10.4054ZM2.8531 9.92078L1.73826 9.40516L1.57422 9.00059L5.48427 8.27079L5.92028 9.34819L2.8531 9.92078ZM2.1052 8.62271L2.94592 8.04435L3.10457 8.43593L2.1052 8.62271ZM3.2794 7.8143L4.41583 7.03186L6.97468 6.55446L7.41069 7.63185L3.50064 8.36166L3.2794 7.8143ZM5.19395 6.49677L7.37508 4.99606L7.47005 4.97803L8.84499 5.88018L5.2177 6.55734L5.19288 6.49677H5.19395ZM9.23027 6.13331L10.6052 7.03546L7.80785 7.55758L7.37184 6.48018L9.23027 6.13331ZM10.9355 7.25253L12.3104 8.15469L10.6246 8.46983L10.1886 7.39243L10.9355 7.25325V7.25253ZM12.8166 8.48641L14.0717 9.30997L13.2148 9.47006L12.8166 8.48714V8.48641ZM14.4019 9.52631L15.5686 10.2922L15.6344 10.4551L11.7233 11.185L11.2873 10.1076L14.4009 9.52631H14.4019ZM16.1622 10.6816L17.5371 11.5837L14.3134 12.1852L13.8774 11.1071L16.1622 10.6809V10.6816ZM5.88142 8.19579L9.79147 7.46599L10.2275 8.54339L6.31635 9.27319L5.88034 8.19579H5.88142ZM8.47157 9.19603L12.3827 8.46622L12.8187 9.54362L8.90866 10.2734L8.47265 9.19603H8.47157ZM6.98116 10.9116L10.8912 10.1818L11.3272 11.2592L7.41717 11.989L6.98116 10.9116ZM9.57131 11.9119L13.4814 11.1821L13.9174 12.2595L10.0073 12.9893L9.57131 11.9119Z" fill="#F39322"/>
<path fill-rule="evenodd" clip-rule="evenodd" d="M19.9398 21.4749L0 10.6072L5.78899 21.4749H19.9398Z" fill="#3F3D56"/>
<path fill-rule="evenodd" clip-rule="evenodd" d="M14.6382 0L9.13086 3.79829L19.3468 11.2182L25.4758 10.3874L25.6528 9.09296L28.8516 9.14056L14.6382 0Z" fill="#3F3D56"/>
</svg>
