<svg width="51" height="41" viewBox="0 0 51 41" fill="none" xmlns="http://www.w3.org/2000/svg">
<g filter="url(#filter0_d_1272_1831)">
<rect x="3.39453" y="0.0385742" width="44.4157" height="34.898" rx="5.07608" fill="#000080"/>
<rect x="3.87041" y="0.514457" width="43.4639" height="33.9463" rx="4.6002" stroke="#F39322" stroke-width="0.951765"/>
</g>
<path d="M33.8025 21.6953V11.4862C33.8025 10.3003 33.8025 9.7074 33.4943 9.24819C33.1861 8.789 32.6403 8.5688 31.5487 8.12838L26.1704 5.9585C25.5128 5.6932 25.184 5.56055 24.8388 5.56055C24.4935 5.56055 24.1647 5.6932 23.5071 5.9585L18.1289 8.12838C17.0373 8.5688 16.4915 8.789 16.1832 9.24819C15.875 9.7074 15.875 10.3003 15.875 11.4862V21.6953" stroke="white" stroke-width="0.951765" stroke-linecap="round" stroke-linejoin="round"/>
<path d="M28.4249 19.9023V21.6951M21.2539 19.9023V21.6951" stroke="white" stroke-width="0.951765" stroke-linecap="round" stroke-linejoin="round"/>
<path d="M20.8047 15.4205L21.0221 14.5509C21.3482 13.2465 21.5112 12.5944 21.9975 12.2147C22.4838 11.835 23.1561 11.835 24.5005 11.835H25.1762C26.5207 11.835 27.1929 11.835 27.6793 12.2147C28.1656 12.5944 28.3286 13.2465 28.6547 14.5509L28.8721 15.4205" stroke="white" stroke-width="0.951765" stroke-linecap="round" stroke-linejoin="round"/>
<path d="M29.3211 15.4204H20.3573C19.8623 15.4204 19.4609 15.8217 19.4609 16.3168V19.0059C19.4609 19.501 19.8623 19.9023 20.3573 19.9023H29.3211C29.8161 19.9023 30.2175 19.501 30.2175 19.0059V16.3168C30.2175 15.8217 29.8161 15.4204 29.3211 15.4204Z" stroke="white" stroke-width="0.951765" stroke-linecap="round" stroke-linejoin="round"/>
<path d="M21.6992 17.6528V17.6626" stroke="white" stroke-width="0.951765" stroke-linecap="round" stroke-linejoin="round"/>
<path d="M27.9766 17.6528V17.6626" stroke="white" stroke-width="0.951765" stroke-linecap="round" stroke-linejoin="round"/>
<path d="M10.2925 26.4152H8.16688V27.6779C8.25571 27.5594 8.38684 27.46 8.56027 27.3796C8.73794 27.2993 8.92618 27.2591 9.12499 27.2591C9.48031 27.2591 9.76796 27.3352 9.98792 27.4875C10.2121 27.6398 10.3707 27.8323 10.4638 28.0649C10.5611 28.2976 10.6097 28.5429 10.6097 28.8009C10.6097 29.114 10.5484 29.3932 10.4257 29.6385C10.3073 29.8796 10.1275 30.07 9.8864 30.2096C9.64952 30.3491 9.35764 30.4189 9.01078 30.4189C8.5497 30.4189 8.17957 30.3047 7.90038 30.0763C7.6212 29.8479 7.45411 29.5454 7.39912 29.169H8.10343C8.14996 29.3678 8.2536 29.5264 8.41434 29.6448C8.57508 29.7591 8.77601 29.8162 9.01712 29.8162C9.31746 29.8162 9.54165 29.7252 9.6897 29.5433C9.84199 29.3614 9.91813 29.1203 9.91813 28.82C9.91813 28.5154 9.84199 28.2828 9.6897 28.122C9.53742 27.957 9.31323 27.8746 9.01712 27.8746C8.80985 27.8746 8.6343 27.9274 8.49048 28.0332C8.35089 28.1347 8.24937 28.2743 8.18591 28.452H7.50064V25.7807H10.2925V26.4152ZM16.1899 27.3225C16.1899 27.5467 16.137 27.7582 16.0312 27.957C15.9255 28.1559 15.7563 28.3187 15.5236 28.4456C15.291 28.5683 14.9928 28.6296 14.629 28.6296H13.8295V30.4189H13.1061V26.0091H14.629C14.9674 26.0091 15.2529 26.0683 15.4856 26.1868C15.7224 26.301 15.898 26.4575 16.0122 26.6563C16.1306 26.8551 16.1899 27.0772 16.1899 27.3225ZM14.629 28.0395C14.9039 28.0395 15.1091 27.9782 15.2444 27.8555C15.3798 27.7286 15.4475 27.551 15.4475 27.3225C15.4475 26.8403 15.1746 26.5992 14.629 26.5992H13.8295V28.0395H14.629ZM19.2274 24.4292L17.5016 31.5293H16.7909L18.5104 24.4292H19.2274ZM21.5921 30.4634C21.296 30.4634 21.0295 30.4126 20.7926 30.3111C20.5557 30.2053 20.3696 30.0573 20.2342 29.8669C20.0989 29.6766 20.0312 29.4545 20.0312 29.2007H20.8053C20.8222 29.391 20.8962 29.5476 21.0274 29.6702C21.1627 29.7929 21.351 29.8542 21.5921 29.8542C21.8416 29.8542 22.0362 29.795 22.1758 29.6766C22.3154 29.5539 22.3852 29.3974 22.3852 29.207C22.3852 29.059 22.3408 28.9384 22.252 28.8454C22.1674 28.7523 22.0595 28.6804 21.9284 28.6296C21.8015 28.5789 21.6238 28.5239 21.3954 28.4647C21.1077 28.3885 20.873 28.3124 20.6911 28.2362C20.5134 28.1559 20.3611 28.0332 20.2342 27.8682C20.1073 27.7032 20.0439 27.4833 20.0439 27.2083C20.0439 26.9545 20.1073 26.7324 20.2342 26.5421C20.3611 26.3517 20.5388 26.2058 20.7672 26.1043C20.9956 26.0028 21.26 25.952 21.5603 25.952C21.9876 25.952 22.3366 26.0599 22.6073 26.2756C22.8822 26.4871 23.0345 26.779 23.0641 27.1512H22.2646C22.252 26.9905 22.1758 26.853 22.0362 26.7388C21.8966 26.6246 21.7126 26.5675 21.4842 26.5675C21.2769 26.5675 21.1077 26.6203 20.9766 26.7261C20.8455 26.8318 20.7799 26.9841 20.7799 27.1829C20.7799 27.3183 20.8201 27.4304 20.9005 27.5192C20.9851 27.6038 21.0908 27.6715 21.2177 27.7223C21.3446 27.773 21.518 27.828 21.738 27.8873C22.0299 27.9676 22.2668 28.048 22.4487 28.1284C22.6348 28.2087 22.7913 28.3335 22.9182 28.5027C23.0493 28.6677 23.1149 28.8898 23.1149 29.169C23.1149 29.3932 23.0536 29.6047 22.9309 29.8035C22.8124 30.0023 22.6369 30.163 22.4042 30.2857C22.1758 30.4041 21.9051 30.4634 21.5921 30.4634ZM24.6917 27.4367C24.8144 27.276 24.9815 27.1406 25.193 27.0307C25.4045 26.9207 25.6435 26.8657 25.91 26.8657C26.2146 26.8657 26.4916 26.9418 26.7412 27.0941C26.995 27.2422 27.1938 27.4516 27.3377 27.7223C27.4815 27.993 27.5534 28.3039 27.5534 28.655C27.5534 29.0061 27.4815 29.3212 27.3377 29.6004C27.1938 29.8754 26.995 30.0911 26.7412 30.2476C26.4916 30.3999 26.2146 30.4761 25.91 30.4761C25.6435 30.4761 25.4066 30.4232 25.1994 30.3174C24.9921 30.2074 24.8229 30.0721 24.6917 29.9113V32.0814H23.9684V26.9228H24.6917V27.4367ZM26.8174 28.655C26.8174 28.4139 26.7666 28.2066 26.6651 28.0332C26.5678 27.8555 26.4366 27.7223 26.2717 27.6334C26.1109 27.5404 25.9375 27.4939 25.7514 27.4939C25.5695 27.4939 25.3961 27.5404 25.2311 27.6334C25.0703 27.7265 24.9392 27.8619 24.8377 28.0395C24.7404 28.2172 24.6917 28.4266 24.6917 28.6677C24.6917 28.9088 24.7404 29.1203 24.8377 29.3022C24.9392 29.4799 25.0703 29.6152 25.2311 29.7083C25.3961 29.8014 25.5695 29.8479 25.7514 29.8479C25.9375 29.8479 26.1109 29.8014 26.2717 29.7083C26.4366 29.611 26.5678 29.4714 26.6651 29.2895C26.7666 29.1076 26.8174 28.8961 26.8174 28.655ZM28.0276 28.655C28.0276 28.3039 28.0995 27.993 28.2433 27.7223C28.3914 27.4516 28.5902 27.2422 28.8398 27.0941C29.0936 26.9418 29.3727 26.8657 29.6773 26.8657C29.9523 26.8657 30.1913 26.9207 30.3943 27.0307C30.6016 27.1364 30.7666 27.2697 30.8892 27.4304V26.9228H31.6189V30.4189H30.8892V29.8986C30.7666 30.0636 30.5995 30.2011 30.388 30.3111C30.1765 30.4211 29.9353 30.4761 29.6646 30.4761C29.3643 30.4761 29.0893 30.3999 28.8398 30.2476C28.5902 30.0911 28.3914 29.8754 28.2433 29.6004C28.0995 29.3212 28.0276 29.0061 28.0276 28.655ZM30.8892 28.6677C30.8892 28.4266 30.8385 28.2172 30.7369 28.0395C30.6397 27.8619 30.5106 27.7265 30.3499 27.6334C30.1891 27.5404 30.0157 27.4939 29.8296 27.4939C29.6435 27.4939 29.47 27.5404 29.3093 27.6334C29.1486 27.7223 29.0174 27.8555 28.9159 28.0332C28.8186 28.2066 28.77 28.4139 28.77 28.655C28.77 28.8961 28.8186 29.1076 28.9159 29.2895C29.0174 29.4714 29.1486 29.611 29.3093 29.7083C29.4743 29.8014 29.6477 29.8479 29.8296 29.8479C30.0157 29.8479 30.1891 29.8014 30.3499 29.7083C30.5106 29.6152 30.6397 29.4799 30.7369 29.3022C30.8385 29.1203 30.8892 28.9088 30.8892 28.6677ZM32.3279 28.6677C32.3279 28.3081 32.3998 27.993 32.5436 27.7223C32.6917 27.4473 32.8947 27.2358 33.1527 27.0878C33.4108 26.9397 33.7069 26.8657 34.0411 26.8657C34.4641 26.8657 34.813 26.9672 35.088 27.1703C35.3672 27.3691 35.5554 27.6546 35.6527 28.0268H34.8723C34.8088 27.8534 34.7073 27.718 34.5677 27.6208C34.4281 27.5235 34.2526 27.4748 34.0411 27.4748C33.7449 27.4748 33.5081 27.5806 33.3304 27.7921C33.157 27.9993 33.0703 28.2912 33.0703 28.6677C33.0703 29.0442 33.157 29.3382 33.3304 29.5497C33.5081 29.7612 33.7449 29.8669 34.0411 29.8669C34.4598 29.8669 34.7369 29.6829 34.8723 29.3149H35.6527C35.5512 29.6702 35.3608 29.9536 35.0816 30.1651C34.8025 30.3724 34.4556 30.4761 34.0411 30.4761C33.7069 30.4761 33.4108 30.402 33.1527 30.254C32.8947 30.1017 32.6917 29.8902 32.5436 29.6195C32.3998 29.3445 32.3279 29.0273 32.3279 28.6677ZM39.5778 28.5852C39.5778 28.7163 39.5694 28.8348 39.5525 28.9405H36.8812C36.9023 29.2197 37.006 29.4439 37.1921 29.6131C37.3782 29.7823 37.6066 29.8669 37.8774 29.8669C38.2665 29.8669 38.5415 29.7041 38.7022 29.3783H39.4827C39.3769 29.6998 39.1844 29.9642 38.9053 30.1715C38.6303 30.3745 38.2877 30.4761 37.8774 30.4761C37.5432 30.4761 37.2428 30.402 36.9764 30.254C36.7141 30.1017 36.5068 29.8902 36.3545 29.6195C36.2065 29.3445 36.1325 29.0273 36.1325 28.6677C36.1325 28.3081 36.2044 27.993 36.3482 27.7223C36.4962 27.4473 36.7014 27.2358 36.9637 27.0878C37.2302 26.9397 37.5347 26.8657 37.8774 26.8657C38.2073 26.8657 38.5013 26.9376 38.7593 27.0814C39.0174 27.2252 39.2183 27.4283 39.3621 27.6906C39.5059 27.9486 39.5778 28.2468 39.5778 28.5852ZM38.8228 28.3568C38.8185 28.0903 38.7234 27.8767 38.5372 27.7159C38.3511 27.5552 38.1206 27.4748 37.8456 27.4748C37.5961 27.4748 37.3824 27.5552 37.2048 27.7159C37.0271 27.8724 36.9214 28.0861 36.8875 28.3568H38.8228ZM41.5587 30.4761C41.2838 30.4761 41.0363 30.4274 40.8163 30.3301C40.6006 30.2286 40.4293 30.0932 40.3024 29.924C40.1755 29.7506 40.1078 29.5581 40.0993 29.3466H40.8481C40.8607 29.4947 40.9305 29.6195 41.0574 29.721C41.1886 29.8183 41.3514 29.8669 41.546 29.8669C41.7491 29.8669 41.9056 29.8289 42.0156 29.7527C42.1298 29.6723 42.1869 29.5708 42.1869 29.4481C42.1869 29.317 42.1234 29.2197 41.9965 29.1563C41.8738 29.0928 41.6771 29.023 41.4064 28.9469C41.1442 28.875 40.9305 28.8052 40.7656 28.7375C40.6006 28.6698 40.4568 28.5662 40.3341 28.4266C40.2157 28.287 40.1564 28.103 40.1564 27.8746C40.1564 27.6884 40.2114 27.5192 40.3214 27.367C40.4314 27.2104 40.5879 27.0878 40.7909 26.9989C40.9982 26.9101 41.2351 26.8657 41.5016 26.8657C41.8992 26.8657 42.2186 26.9672 42.4597 27.1703C42.7051 27.3691 42.8362 27.6419 42.8531 27.9888H42.1298C42.1171 27.8323 42.0536 27.7075 41.9394 27.6144C41.8252 27.5213 41.6708 27.4748 41.4762 27.4748C41.2859 27.4748 41.1399 27.5108 41.0384 27.5827C40.9369 27.6546 40.8861 27.7498 40.8861 27.8682C40.8861 27.9613 40.92 28.0395 40.9876 28.103C41.0553 28.1664 41.1378 28.2172 41.2351 28.2553C41.3324 28.2891 41.4762 28.3335 41.6666 28.3885C41.9204 28.4562 42.1277 28.526 42.2884 28.5979C42.4534 28.6656 42.5951 28.7671 42.7135 28.9025C42.832 29.0378 42.8933 29.2176 42.8975 29.4418C42.8975 29.6406 42.8425 29.8183 42.7326 29.9748C42.6226 30.1313 42.4661 30.254 42.263 30.3428C42.0642 30.4316 41.8294 30.4761 41.5587 30.4761Z" fill="white"/>
<defs>
<filter id="filter0_d_1272_1831" x="0.856492" y="0.0385742" width="49.4921" height="39.974" filterUnits="userSpaceOnUse" color-interpolation-filters="sRGB">
<feFlood flood-opacity="0" result="BackgroundImageFix"/>
<feColorMatrix in="SourceAlpha" type="matrix" values="0 0 0 0 0 0 0 0 0 0 0 0 0 0 0 0 0 0 127 0" result="hardAlpha"/>
<feOffset dy="2.53804"/>
<feGaussianBlur stdDeviation="1.26902"/>
<feComposite in2="hardAlpha" operator="out"/>
<feColorMatrix type="matrix" values="0 0 0 0 0 0 0 0 0 0 0 0 0 0 0 0 0 0 0.25 0"/>
<feBlend mode="normal" in2="BackgroundImageFix" result="effect1_dropShadow_1272_1831"/>
<feBlend mode="normal" in="SourceGraphic" in2="effect1_dropShadow_1272_1831" result="shape"/>
</filter>
</defs>
</svg>
