<svg width="51" height="41" viewBox="0 0 51 41" fill="none" xmlns="http://www.w3.org/2000/svg">
<g filter="url(#filter0_d_1272_1823)">
<rect x="3.39453" y="0.0646973" width="44.4157" height="34.898" rx="5.07608" fill="#000080"/>
<rect x="3.87041" y="0.54058" width="43.4639" height="33.9463" rx="4.6002" stroke="#F39322" stroke-width="0.951765"/>
</g>
<path d="M23.127 12.2129H31.3154C32.6286 12.2129 33.2852 12.2129 33.6817 12.872C34.0782 13.5311 33.8447 13.9512 33.3776 14.7917C32.4508 16.4599 30.6525 17.5911 28.586 17.5911C27.2015 17.5911 25.9374 17.0834 24.9751 16.2466" stroke="white" stroke-width="0.951765" stroke-linecap="round" stroke-linejoin="round"/>
<path d="M23.1265 12.2129V5.93826C23.1265 5.09315 23.1265 4.6706 22.864 4.40805C22.6014 4.14551 22.1789 4.14551 21.3338 4.14551C20.4887 4.14551 20.0661 4.14551 19.8036 4.40805C19.541 4.6706 19.541 5.09315 19.541 5.93826V12.2129C19.541 13.058 19.541 13.4806 19.8036 13.7431C20.0661 14.0056 20.4887 14.0056 21.3338 14.0056C22.1789 14.0056 22.6014 14.0056 22.864 13.7431C23.1265 13.4806 23.1265 13.058 23.1265 12.2129Z" stroke="white" stroke-width="0.951765" stroke-linecap="round" stroke-linejoin="round"/>
<path d="M22.2305 8.62744H24.9196" stroke="white" stroke-width="0.951765" stroke-linecap="round" stroke-linejoin="round"/>
<path d="M30.2975 17.5911V17.5911C29.3526 18.5361 28.0624 22.073 26.726 22.073H24.0971C22.4158 22.073 21.0345 19.5856 21.2044 17.9129C21.3179 16.7946 21.2554 15.4849 20.8856 14.0056" stroke="white" stroke-width="0.951765" stroke-linecap="round" stroke-linejoin="round"/>
<path d="M14.8328 26.8918C14.7863 26.6972 14.7017 26.5513 14.579 26.454C14.4563 26.3567 14.285 26.3081 14.065 26.3081C13.7309 26.3081 13.4813 26.4371 13.3163 26.6951C13.1514 26.9489 13.0646 27.3719 13.0562 27.9641C13.1662 27.778 13.3269 27.6342 13.5384 27.5327C13.7499 27.4311 13.9783 27.3804 14.2237 27.3804C14.5029 27.3804 14.7482 27.4417 14.9597 27.5644C15.1754 27.6828 15.3425 27.8563 15.461 28.0847C15.5836 28.3131 15.645 28.586 15.645 28.9032C15.645 29.1993 15.5858 29.4637 15.4673 29.6963C15.3531 29.929 15.1818 30.113 14.9534 30.2484C14.7249 30.3795 14.45 30.4451 14.1285 30.4451C13.6928 30.4451 13.3502 30.3499 13.1006 30.1595C12.8552 29.965 12.6818 29.6921 12.5803 29.341C12.483 28.9899 12.4344 28.5521 12.4344 28.0276C12.4344 26.4794 12.98 25.7053 14.0714 25.7053C14.4944 25.7053 14.8265 25.8195 15.0676 26.0479C15.3129 26.2763 15.4567 26.5576 15.499 26.8918H14.8328ZM14.065 27.9895C13.807 27.9895 13.587 28.0678 13.4052 28.2243C13.2275 28.3766 13.1387 28.5986 13.1387 28.8905C13.1387 29.1824 13.2211 29.415 13.3861 29.5885C13.5553 29.7577 13.7901 29.8423 14.0904 29.8423C14.3569 29.8423 14.5663 29.7598 14.7186 29.5948C14.8751 29.4299 14.9534 29.2099 14.9534 28.9349C14.9534 28.6473 14.8772 28.4189 14.7249 28.2497C14.5769 28.0762 14.3569 27.9895 14.065 27.9895ZM21.0089 26.0352V26.6253H19.8351V30.4451H19.1117V26.6253H17.9315V26.0352H21.0089ZM23.258 30.5022C22.928 30.5022 22.6298 30.4281 22.3633 30.2801C22.0968 30.1278 21.8874 29.9163 21.7351 29.6456C21.5828 29.3706 21.5067 29.0534 21.5067 28.6938C21.5067 28.3385 21.585 28.0234 21.7415 27.7484C21.898 27.4734 22.1116 27.2619 22.3823 27.1139C22.6531 26.9658 22.9555 26.8918 23.2897 26.8918C23.6239 26.8918 23.9263 26.9658 24.197 27.1139C24.4678 27.2619 24.6814 27.4734 24.8379 27.7484C24.9944 28.0234 25.0727 28.3385 25.0727 28.6938C25.0727 29.0491 24.9923 29.3643 24.8315 29.6392C24.6708 29.9142 24.4508 30.1278 24.1717 30.2801C23.8967 30.4281 23.5921 30.5022 23.258 30.5022ZM23.258 29.874C23.4441 29.874 23.6175 29.8296 23.7783 29.7408C23.9432 29.6519 24.0765 29.5187 24.178 29.341C24.2795 29.1634 24.3303 28.9476 24.3303 28.6938C24.3303 28.44 24.2816 28.2264 24.1843 28.053C24.087 27.8753 23.958 27.7421 23.7973 27.6532C23.6365 27.5644 23.4631 27.52 23.277 27.52C23.0909 27.52 22.9174 27.5644 22.7567 27.6532C22.6002 27.7421 22.4754 27.8753 22.3823 28.053C22.2893 28.2264 22.2427 28.44 22.2427 28.6938C22.2427 29.0703 22.3379 29.3622 22.5283 29.5694C22.7229 29.7725 22.9661 29.874 23.258 29.874ZM26.1557 26.4857C26.0246 26.4857 25.9146 26.4413 25.8258 26.3525C25.737 26.2636 25.6925 26.1537 25.6925 26.0225C25.6925 25.8914 25.737 25.7814 25.8258 25.6926C25.9146 25.6038 26.0246 25.5593 26.1557 25.5593C26.2826 25.5593 26.3905 25.6038 26.4793 25.6926C26.5682 25.7814 26.6126 25.8914 26.6126 26.0225C26.6126 26.1537 26.5682 26.2636 26.4793 26.3525C26.3905 26.4413 26.2826 26.4857 26.1557 26.4857ZM26.5111 26.9489V30.4451H25.7877V26.9489H26.5111ZM28.1841 25.7497V30.4451H27.4607V25.7497H28.1841ZM32.338 28.6113C32.338 28.7425 32.3296 28.8609 32.3127 28.9667H29.6414C29.6625 29.2458 29.7662 29.47 29.9523 29.6392C30.1384 29.8084 30.3668 29.893 30.6376 29.893C31.0267 29.893 31.3017 29.7302 31.4624 29.4045H32.2429C32.1371 29.726 31.9446 29.9903 31.6655 30.1976C31.3905 30.4007 31.0479 30.5022 30.6376 30.5022C30.3034 30.5022 30.003 30.4281 29.7365 30.2801C29.4743 30.1278 29.267 29.9163 29.1147 29.6456C28.9667 29.3706 28.8927 29.0534 28.8927 28.6938C28.8927 28.3343 28.9646 28.0191 29.1084 27.7484C29.2564 27.4734 29.4616 27.2619 29.7239 27.1139C29.9904 26.9658 30.2949 26.8918 30.6376 26.8918C30.9675 26.8918 31.2615 26.9637 31.5195 27.1075C31.7776 27.2514 31.9785 27.4544 32.1223 27.7167C32.2661 27.9747 32.338 28.2729 32.338 28.6113ZM31.583 28.3829C31.5787 28.1164 31.4836 27.9028 31.2974 27.7421C31.1113 27.5813 30.8808 27.5009 30.6058 27.5009C30.3563 27.5009 30.1426 27.5813 29.965 27.7421C29.7873 27.8986 29.6816 28.1122 29.6477 28.3829H31.583ZM33.8938 27.539V29.4743C33.8938 29.6054 33.9234 29.7006 33.9826 29.7598C34.0461 29.8148 34.1518 29.8423 34.2999 29.8423H34.744V30.4451H34.173C33.8472 30.4451 33.5977 30.3689 33.4242 30.2166C33.2508 30.0644 33.1641 29.8169 33.1641 29.4743V27.539H32.7517V26.9489H33.1641V26.0796H33.8938V26.9489H34.744V27.539H33.8938ZM36.6797 30.5022C36.4048 30.5022 36.1573 30.4535 35.9373 30.3562C35.7216 30.2547 35.5503 30.1194 35.4234 29.9502C35.2965 29.7767 35.2288 29.5842 35.2203 29.3727H35.9691C35.9818 29.5208 36.0516 29.6456 36.1785 29.7471C36.3096 29.8444 36.4724 29.893 36.667 29.893C36.8701 29.893 37.0266 29.855 37.1366 29.7788C37.2508 29.6985 37.3079 29.5969 37.3079 29.4743C37.3079 29.3431 37.2444 29.2458 37.1175 29.1824C36.9949 29.1189 36.7982 29.0491 36.5274 28.973C36.2652 28.9011 36.0516 28.8313 35.8866 28.7636C35.7216 28.6959 35.5778 28.5923 35.4551 28.4527C35.3367 28.3131 35.2775 28.1291 35.2775 27.9007C35.2775 27.7146 35.3324 27.5454 35.4424 27.3931C35.5524 27.2366 35.7089 27.1139 35.912 27.0251C36.1192 26.9362 36.3561 26.8918 36.6226 26.8918C37.0202 26.8918 37.3396 26.9933 37.5807 27.1964C37.8261 27.3952 37.9572 27.668 37.9741 28.0149H37.2508C37.2381 27.8584 37.1746 27.7336 37.0604 27.6405C36.9462 27.5475 36.7918 27.5009 36.5972 27.5009C36.4069 27.5009 36.2609 27.5369 36.1594 27.6088C36.0579 27.6807 36.0071 27.7759 36.0071 27.8943C36.0071 27.9874 36.041 28.0657 36.1087 28.1291C36.1763 28.1926 36.2588 28.2433 36.3561 28.2814C36.4534 28.3152 36.5972 28.3596 36.7876 28.4146C37.0414 28.4823 37.2487 28.5521 37.4094 28.624C37.5744 28.6917 37.7161 28.7932 37.8345 28.9286C37.953 29.064 38.0143 29.2437 38.0185 29.4679C38.0185 29.6667 37.9635 29.8444 37.8536 30.0009C37.7436 30.1574 37.5871 30.2801 37.384 30.3689C37.1852 30.4578 36.9504 30.5022 36.6797 30.5022Z" fill="white"/>
<defs>
<filter id="filter0_d_1272_1823" x="0.856492" y="0.0646973" width="49.4921" height="39.974" filterUnits="userSpaceOnUse" color-interpolation-filters="sRGB">
<feFlood flood-opacity="0" result="BackgroundImageFix"/>
<feColorMatrix in="SourceAlpha" type="matrix" values="0 0 0 0 0 0 0 0 0 0 0 0 0 0 0 0 0 0 127 0" result="hardAlpha"/>
<feOffset dy="2.53804"/>
<feGaussianBlur stdDeviation="1.26902"/>
<feComposite in2="hardAlpha" operator="out"/>
<feColorMatrix type="matrix" values="0 0 0 0 0 0 0 0 0 0 0 0 0 0 0 0 0 0 0.25 0"/>
<feBlend mode="normal" in2="BackgroundImageFix" result="effect1_dropShadow_1272_1823"/>
<feBlend mode="normal" in="SourceGraphic" in2="effect1_dropShadow_1272_1823" result="shape"/>
</filter>
</defs>
</svg>
